<?xml version="1.0" encoding="UTF-8"?>
<!DOCTYPE svg PUBLIC "-//W3C//DTD SVG 1.1//EN" "http://www.w3.org/Graphics/SVG/1.1/DTD/svg11.dtd">
<svg xmlns="http://www.w3.org/2000/svg" version="1.1" width="826px" height="826px" style="shape-rendering:geometricPrecision; text-rendering:geometricPrecision; image-rendering:optimizeQuality; fill-rule:evenodd; clip-rule:evenodd" xmlns:xlink="http://www.w3.org/1999/xlink">
<g><path style="opacity:1" fill="#fefefe" d="M -0.5,-0.5 C 274.833,-0.5 550.167,-0.5 825.5,-0.5C 825.5,274.833 825.5,550.167 825.5,825.5C 550.167,825.5 274.833,825.5 -0.5,825.5C -0.5,550.167 -0.5,274.833 -0.5,-0.5 Z"/></g>
<g><path style="opacity:1" fill="#221f1f" d="M 462.5,347.5 C 462.664,350.187 462.497,352.854 462,355.5C 461.667,354.167 461.333,352.833 461,351.5C 460.667,352.167 460.333,352.833 460,353.5C 459.685,350.628 459.185,347.795 458.5,345C 458.759,343.739 459.426,342.739 460.5,342C 459.241,341.018 457.908,340.685 456.5,341C 454.977,343.434 453.977,346.101 453.5,349C 454.333,349.833 455.167,350.667 456,351.5C 456.21,354.234 457.044,356.734 458.5,359C 457.217,361.795 457.217,364.628 458.5,367.5C 459.314,365.234 459.814,362.9 460,360.5C 460.333,361.167 460.667,361.833 461,362.5C 462.258,368.446 462.758,374.279 462.5,380C 461.902,383.368 460.735,383.868 459,381.5C 457.923,383.116 457.423,384.949 457.5,387C 458.812,396.623 460.312,406.123 462,415.5C 462.741,416.641 463.575,416.641 464.5,415.5C 464.833,417 465.167,418.5 465.5,420C 464.838,422.978 464.838,425.811 465.5,428.5C 465.167,429.5 464.833,430.5 464.5,431.5C 463.692,429.577 463.192,427.577 463,425.5C 462.189,429.496 461.856,433.496 462,437.5C 462.333,437.167 462.667,436.833 463,436.5C 463.667,444.167 463.667,451.833 463,459.5C 462.583,460.756 461.75,461.423 460.5,461.5C 461.97,458.906 462.636,456.073 462.5,453C 460.74,424.218 457.74,395.718 453.5,367.5C 453.812,355.554 452.312,343.887 449,332.5C 448.617,333.056 448.117,333.389 447.5,333.5C 446.677,331.013 445.677,328.679 444.5,326.5C 442.699,319.556 439.365,313.556 434.5,308.5C 429.065,299.898 422.065,292.731 413.5,287C 411.423,285.295 409.09,284.128 406.5,283.5C 397.779,277.471 388.446,272.471 378.5,268.5C 378.158,267.662 377.492,267.328 376.5,267.5C 375.167,266.5 373.833,265.5 372.5,264.5C 365.648,260.666 359.482,256 354,250.5C 352.612,251.554 351.112,251.72 349.5,251C 345.356,248.075 341.022,245.408 336.5,243C 337.5,242 338.5,241 339.5,240C 333.907,241.018 328.907,239.685 324.5,236C 320.803,235.826 317.469,234.659 314.5,232.5C 313.374,228.781 314.207,228.114 317,230.5C 316.937,227.233 318.437,225.066 321.5,224C 319.829,219.378 320.662,215.211 324,211.5C 324.495,209.527 324.662,207.527 324.5,205.5C 325.794,204.71 326.961,203.71 328,202.5C 332.289,191.469 335.455,180.136 337.5,168.5C 336.292,164.617 335.292,160.617 334.5,156.5C 333.311,155.571 331.978,155.238 330.5,155.5C 330.167,154.5 329.5,153.833 328.5,153.5C 328.489,151.983 327.823,150.816 326.5,150C 319.049,147.694 311.382,146.861 303.5,147.5C 303.177,135.208 303.177,122.875 303.5,110.5C 298.288,113.204 293.788,116.871 290,121.5C 289.517,122.448 289.351,123.448 289.5,124.5C 288.89,125.391 288.557,126.391 288.5,127.5C 285.5,130.833 282.5,134.167 279.5,137.5C 276.715,139.271 274.715,141.771 273.5,145C 272.667,145.167 271.833,145.333 271,145.5C 260.575,143.583 250.075,143.083 239.5,144C 238.584,144.278 237.918,144.778 237.5,145.5C 235.5,145.5 233.5,145.5 231.5,145.5C 214.84,147.227 198.174,147.561 181.5,146.5C 180.445,141.588 178.112,137.421 174.5,134C 175.436,130.411 173.936,128.245 170,127.5C 168.595,123.783 167.095,120.117 165.5,116.5C 164.893,116.624 164.56,116.957 164.5,117.5C 161.834,120.164 160.168,123.497 159.5,127.5C 157.072,132.694 154.906,138.028 153,143.5C 142.789,145.69 134.622,151.023 128.5,159.5C 125.472,161.722 123.305,164.722 122,168.5C 117.357,188.48 117.357,208.48 122,228.5C 122.934,229.858 123.768,231.192 124.5,232.5C 127.994,245.157 134.327,256.157 143.5,265.5C 145.167,267.5 146.833,269.5 148.5,271.5C 149.833,274.833 151.167,278.167 152.5,281.5C 150.774,281.185 149.107,281.019 147.5,281C 148.337,282.011 148.67,283.178 148.5,284.5C 147.833,290.833 147.167,297.167 146.5,303.5C 145.732,304.263 145.232,305.263 145,306.5C 144.637,313.843 144.137,321.177 143.5,328.5C 143.617,355.656 143.95,382.656 144.5,409.5C 145.102,433.66 147.269,457.66 151,481.5C 153.105,485.069 155.938,487.902 159.5,490C 165.555,490.198 171.555,489.698 177.5,488.5C 188.432,488.553 199.265,487.887 210,486.5C 209.731,473.518 209.564,460.518 209.5,447.5C 208.5,447.5 207.5,447.5 206.5,447.5C 206.333,434.829 206.5,422.162 207,409.5C 207.517,404.418 208.351,399.418 209.5,394.5C 213.583,394.194 216.249,395.861 217.5,399.5C 217.966,427.528 219.133,455.528 221,483.5C 232.419,484.488 243.919,484.821 255.5,484.5C 269.504,484.667 283.504,484.5 297.5,484C 298.416,483.626 299.25,483.126 300,482.5C 298.624,469.273 298.29,455.939 299,442.5C 300.515,434.452 302.015,426.452 303.5,418.5C 304.496,418.586 305.329,418.252 306,417.5C 307.241,411.286 310.407,406.452 315.5,403C 320.833,397.667 326.167,392.333 331.5,387C 339.005,384.446 346.339,381.612 353.5,378.5C 359.528,377.694 365.528,377.694 371.5,378.5C 372.374,380.747 372.708,383.08 372.5,385.5C 365.464,387.343 358.464,389.343 351.5,391.5C 348.402,391.756 345.402,392.422 342.5,393.5C 341.127,393.343 339.793,393.51 338.5,394C 333.124,397.033 327.79,400.033 322.5,403C 323.673,406.11 323.173,406.277 321,403.5C 321.207,405.751 321.373,408.085 321.5,410.5C 313.671,424.774 309.671,440.107 309.5,456.5C 308.507,464.65 308.174,472.983 308.5,481.5C 309.5,481.5 310.5,481.5 311.5,481.5C 315.042,481.38 318.542,481.714 322,482.5C 325.812,481.854 329.646,481.354 333.5,481C 334.416,480.722 335.082,480.222 335.5,479.5C 351.722,479.558 367.722,478.558 383.5,476.5C 394.417,476.127 405.25,476.127 416,476.5C 422.643,475.216 429.31,473.883 436,472.5C 437.03,472.836 437.53,473.503 437.5,474.5C 436.603,475.598 435.77,475.598 435,474.5C 434.167,475.333 433.333,476.167 432.5,477C 434.384,477.216 436.051,477.883 437.5,479C 434.607,479.273 431.94,480.107 429.5,481.5C 425.982,481.372 422.316,481.206 418.5,481C 417.167,480.333 417.167,479.667 418.5,479C 421.956,478.82 425.289,478.153 428.5,477C 424.833,476.333 421.167,476.333 417.5,477C 415.924,477.44 414.59,478.273 413.5,479.5C 411.135,478.711 408.801,479.044 406.5,480.5C 404.214,479.58 401.881,479.58 399.5,480.5C 398.955,476.828 398.622,477.162 398.5,481.5C 393.03,481.609 387.864,481.275 383,480.5C 377.832,481.444 372.832,482.11 368,482.5C 367.517,481.552 367.351,480.552 367.5,479.5C 364.102,479.18 360.768,479.513 357.5,480.5C 357.167,481.167 356.833,481.833 356.5,482.5C 358.373,481.911 360.04,482.578 361.5,484.5C 360.672,485.415 359.672,486.081 358.5,486.5C 356.89,485.448 355.223,485.448 353.5,486.5C 351.896,486.061 350.396,485.394 349,484.5C 347.941,484.63 347.108,485.13 346.5,486C 348.521,486.513 350.021,487.68 351,489.5C 351.333,489.167 351.667,488.833 352,488.5C 352.368,489.91 353.201,490.91 354.5,491.5C 357.784,491.09 361.284,490.424 365,489.5C 366.067,490.191 367.234,490.691 368.5,491C 373.466,491.391 378.133,491.558 382.5,491.5C 368.351,492.739 354.018,493.406 339.5,493.5C 309.236,493.45 278.903,493.117 248.5,492.5C 240.974,493.003 233.641,494.003 226.5,495.5C 205.127,496.353 183.794,497.853 162.5,500C 159.282,500.9 156.282,502.067 153.5,503.5C 143.056,505.943 134.39,511.277 127.5,519.5C 120.385,527.064 115.885,536.064 114,546.5C 112.925,550.77 112.425,555.103 112.5,559.5C 111.658,587.158 113.824,614.825 119,642.5C 120.871,649.391 122.204,656.391 123,663.5C 123.638,666.601 124.805,669.268 126.5,671.5C 127.038,673.117 127.371,674.784 127.5,676.5C 126.756,681.739 127.922,686.406 131,690.5C 131.661,693.946 132.495,697.279 133.5,700.5C 136.726,701.205 139.893,702.205 143,703.5C 143.519,702.484 144.353,701.818 145.5,701.5C 147.258,702.446 148.925,702.446 150.5,701.5C 150.069,700.707 149.735,699.873 149.5,699C 150.161,696.536 150.661,694.036 151,691.5C 153.255,688.558 154.921,685.225 156,681.5C 156.429,674.62 158.596,668.453 162.5,663C 161.925,660.859 161.592,658.359 161.5,655.5C 165.449,655.307 165.449,654.807 161.5,654C 164.064,648.239 165.564,642.406 166,636.5C 166.741,635.359 167.575,635.359 168.5,636.5C 169.59,637.391 169.59,638.391 168.5,639.5C 169.976,640.88 170.976,642.547 171.5,644.5C 174.557,645.39 176.391,647.39 177,650.5C 178.343,649.786 179.676,650.12 181,651.5C 182.565,654.962 184.398,658.295 186.5,661.5C 191.584,665.962 196.084,670.962 200,676.5C 201.751,678.49 202.751,680.823 203,683.5C 204.992,684.665 206.825,685.998 208.5,687.5C 211.137,691.403 212.804,695.736 213.5,700.5C 217.177,702.453 221.177,703.453 225.5,703.5C 225.964,700.864 226.297,698.197 226.5,695.5C 224.808,676.228 221.142,657.394 215.5,639C 215.833,638.667 216.167,638.333 216.5,638C 215.584,637.626 214.75,637.126 214,636.5C 213.163,633.734 211.997,631.234 210.5,629C 212.338,622.161 214.672,622.328 217.5,629.5C 217.167,630.167 216.833,630.833 216.5,631.5C 217.831,632.592 218.664,633.926 219,635.5C 219.949,633.907 221.115,632.574 222.5,631.5C 234.839,653.866 241.006,677.866 241,703.5C 239.716,711.937 235.216,717.771 227.5,721C 221.809,721.576 216.975,719.743 213,715.5C 198.911,695.656 184.578,675.989 170,656.5C 167.829,675.187 163.162,693.187 156,710.5C 149.839,716.52 142.672,718.02 134.5,715C 127.863,709.915 123.03,703.415 120,695.5C 111.376,673.625 106.043,650.958 104,627.5C 100.95,601.24 99.6168,574.907 100,548.5C 101.702,536.558 105.869,525.558 112.5,515.5C 98.2804,498.736 87.947,479.736 81.5,458.5C 82.8678,453.922 85.8678,452.422 90.5,454C 101.314,471.148 115.647,484.482 133.5,494C 136.706,494.89 139.706,494.557 142.5,493C 138.51,483.616 136.344,473.783 136,463.5C 134.888,440.822 133.555,418.155 132,395.5C 131.239,353.809 131.573,312.143 133,270.5C 123.765,259.827 117.765,247.493 115,233.5C 111.457,214.986 110.124,196.319 111,177.5C 113.582,157.277 124.415,143.944 143.5,137.5C 148.557,124.386 153.89,111.386 159.5,98.5C 162.903,95.8008 166.07,96.1341 169,99.5C 173.124,109.081 177.791,118.414 183,127.5C 188.236,134.618 195.236,137.952 204,137.5C 223.154,136.382 242.321,135.548 261.5,135C 263.878,134.489 266.212,133.822 268.5,133C 279.814,120.021 292.147,108.021 305.5,97C 312.256,94.5785 314.923,97.0785 313.5,104.5C 312.373,116.478 311.707,128.478 311.5,140.5C 335.715,140.875 346.548,153.208 344,177.5C 341.053,195.224 334.886,211.724 325.5,227C 348.344,238.922 371.344,250.589 394.5,262C 407.337,268.915 419.67,276.582 431.5,285C 450.111,301.632 460.445,322.465 462.5,347.5 Z"/></g>
<g><path style="opacity:1" fill="#2f1f11" d="M 231.5,145.5 C 228.833,146.167 226.167,146.833 223.5,147.5C 210.216,149.22 196.883,149.72 183.5,149C 176.414,143.74 171.414,136.906 168.5,128.5C 166.888,124.942 165.555,121.275 164.5,117.5C 164.56,116.957 164.893,116.624 165.5,116.5C 167.095,120.117 168.595,123.783 170,127.5C 173.936,128.245 175.436,130.411 174.5,134C 178.112,137.421 180.445,141.588 181.5,146.5C 198.174,147.561 214.84,147.227 231.5,145.5 Z"/></g>
<g><path style="opacity:1" fill="#eeb870" d="M 168.5,128.5 C 171.414,136.906 176.414,143.74 183.5,149C 196.883,149.72 210.216,149.22 223.5,147.5C 220.579,148.194 217.579,149.027 214.5,150C 203.152,150.832 191.819,150.666 180.5,149.5C 177.025,147.303 174.358,144.303 172.5,140.5C 170.922,139.702 169.256,139.202 167.5,139C 168.26,137.559 168.926,136.059 169.5,134.5C 168.349,133.269 167.183,133.269 166,134.5C 166.218,132.413 166.051,130.413 165.5,128.5C 162.465,129.921 159.965,131.921 158,134.5C 157.744,137.557 157.244,140.557 156.5,143.5C 157.325,144.386 158.325,144.719 159.5,144.5C 160.303,149.079 158.637,152.246 154.5,154C 153.833,154.667 153.167,154.667 152.5,154C 155.003,152.216 155.003,150.549 152.5,149C 147.06,147.826 142.06,148.826 137.5,152C 134.251,155.42 130.917,158.587 127.5,161.5C 127.833,160.833 128.167,160.167 128.5,159.5C 134.622,151.023 142.789,145.69 153,143.5C 154.906,138.028 157.072,132.694 159.5,127.5C 160.496,127.586 161.329,127.252 162,126.5C 162.219,125.062 162.719,123.729 163.5,122.5C 164.698,124.898 166.364,126.898 168.5,128.5 Z"/></g>
<g><path style="opacity:1" fill="#3a2411" d="M 328.5,153.5 C 325.706,151.787 322.706,150.454 319.5,149.5C 314.015,148.673 308.348,148.173 302.5,148C 301.944,147.617 301.611,147.117 301.5,146.5C 301.698,135.153 301.865,123.82 302,112.5C 297.964,116.704 293.798,120.704 289.5,124.5C 289.351,123.448 289.517,122.448 290,121.5C 293.788,116.871 298.288,113.204 303.5,110.5C 303.177,122.875 303.177,135.208 303.5,147.5C 311.382,146.861 319.049,147.694 326.5,150C 327.823,150.816 328.489,151.983 328.5,153.5 Z"/></g>
<g><path style="opacity:1" fill="#f7b760" d="M 301.5,146.5 C 301.611,147.117 301.944,147.617 302.5,148C 308.348,148.173 314.015,148.673 319.5,149.5C 322.187,151.698 325.187,153.698 328.5,155.5C 328.963,158.583 330.129,161.249 332,163.5C 332.825,171.629 332.325,179.629 330.5,187.5C 328.375,191.262 326.542,195.262 325,199.5C 324.667,199.833 324.333,200.167 324,200.5C 322.956,199.377 322.29,198.044 322,196.5C 320.632,197.993 320.465,199.493 321.5,201C 320.833,201.333 320.167,201.667 319.5,202C 321.283,203.067 321.783,204.567 321,206.5C 320.667,206.167 320.333,205.833 320,205.5C 315.92,214.073 312.087,222.739 308.5,231.5C 304.311,232.537 302.645,235.204 303.5,239.5C 300.158,240.012 298.324,242.012 298,245.5C 297.282,244.549 296.449,244.383 295.5,245C 297.018,248.989 295.685,251.489 291.5,252.5C 291.5,253.5 291.5,254.5 291.5,255.5C 290.127,255.343 288.793,255.51 287.5,256C 288.451,256.718 288.617,257.551 288,258.5C 283.387,258.616 281.554,260.949 282.5,265.5C 277.393,270.27 271.727,274.27 265.5,277.5C 262.206,278.115 259.039,279.115 256,280.5C 254.951,278.893 253.451,278.227 251.5,278.5C 251.649,279.552 251.483,280.552 251,281.5C 248.491,283.648 245.991,285.648 243.5,287.5C 237.452,287.077 231.618,287.744 226,289.5C 224.439,289.397 222.939,289.063 221.5,288.5C 216.689,290.216 211.856,290.55 207,289.5C 205.407,291.285 203.907,291.452 202.5,290C 196.461,289.663 190.461,288.997 184.5,288C 179.109,285.147 173.443,282.98 167.5,281.5C 164.879,279.122 162.379,276.789 160,274.5C 159.667,275.167 159.333,275.833 159,276.5C 156.457,274.658 154.29,272.491 152.5,270C 149.144,269.128 146.144,267.628 143.5,265.5C 143.174,263.339 142.174,261.506 140.5,260C 141.167,259.667 141.833,259.333 142.5,259C 141.029,256.757 140.029,254.257 139.5,251.5C 138.914,251.709 138.414,252.043 138,252.5C 136.292,250.457 134.292,248.79 132,247.5C 132.126,243.538 130.792,240.205 128,237.5C 127.717,233.867 126.883,230.367 125.5,227C 125.667,226.167 125.833,225.333 126,224.5C 126.654,225.696 127.154,225.696 127.5,224.5C 125.986,220.697 124.986,216.697 124.5,212.5C 123.914,212.709 123.414,213.043 123,213.5C 122.758,205.351 122.591,197.184 122.5,189C 122.828,179.855 124.495,171.022 127.5,162.5C 127.5,162.167 127.5,161.833 127.5,161.5C 130.917,158.587 134.251,155.42 137.5,152C 142.06,148.826 147.06,147.826 152.5,149C 155.003,150.549 155.003,152.216 152.5,154C 153.167,154.667 153.833,154.667 154.5,154C 158.637,152.246 160.303,149.079 159.5,144.5C 158.325,144.719 157.325,144.386 156.5,143.5C 157.244,140.557 157.744,137.557 158,134.5C 159.965,131.921 162.465,129.921 165.5,128.5C 166.051,130.413 166.218,132.413 166,134.5C 167.183,133.269 168.349,133.269 169.5,134.5C 168.926,136.059 168.26,137.559 167.5,139C 169.256,139.202 170.922,139.702 172.5,140.5C 174.358,144.303 177.025,147.303 180.5,149.5C 191.819,150.666 203.152,150.832 214.5,150C 217.579,149.027 220.579,148.194 223.5,147.5C 231.49,147.034 239.49,146.7 247.5,146.5C 256.604,146.602 265.604,147.102 274.5,148C 277.072,145.687 278.739,142.854 279.5,139.5C 279.5,138.833 279.5,138.167 279.5,137.5C 282.5,134.167 285.5,130.833 288.5,127.5C 292.434,123.905 296.434,120.239 300.5,116.5C 300.237,126.549 300.57,136.549 301.5,146.5 Z"/></g>
<g><path style="opacity:1" fill="#ddb277" d="M 279.5,139.5 C 278.739,142.854 277.072,145.687 274.5,148C 265.604,147.102 256.604,146.602 247.5,146.5C 239.49,146.7 231.49,147.034 223.5,147.5C 226.167,146.833 228.833,146.167 231.5,145.5C 233.5,145.5 235.5,145.5 237.5,145.5C 248.599,144.985 259.599,145.651 270.5,147.5C 271.938,147.281 273.271,146.781 274.5,146C 276.066,143.674 277.732,141.508 279.5,139.5 Z"/></g>
<g><path style="opacity:1" fill="#392511" d="M 279.5,137.5 C 279.5,138.167 279.5,138.833 279.5,139.5C 277.732,141.508 276.066,143.674 274.5,146C 273.271,146.781 271.938,147.281 270.5,147.5C 259.599,145.651 248.599,144.985 237.5,145.5C 237.918,144.778 238.584,144.278 239.5,144C 250.075,143.083 260.575,143.583 271,145.5C 271.833,145.333 272.667,145.167 273.5,145C 274.715,141.771 276.715,139.271 279.5,137.5 Z"/></g>
<g><path style="opacity:1" fill="#d9af79" d="M 164.5,117.5 C 165.555,121.275 166.888,124.942 168.5,128.5C 166.364,126.898 164.698,124.898 163.5,122.5C 162.719,123.729 162.219,125.062 162,126.5C 161.329,127.252 160.496,127.586 159.5,127.5C 160.168,123.497 161.834,120.164 164.5,117.5 Z"/></g>
<g><path style="opacity:1" fill="#e1b779" d="M 301.5,146.5 C 300.57,136.549 300.237,126.549 300.5,116.5C 296.434,120.239 292.434,123.905 288.5,127.5C 288.557,126.391 288.89,125.391 289.5,124.5C 293.798,120.704 297.964,116.704 302,112.5C 301.865,123.82 301.698,135.153 301.5,146.5 Z"/></g>
<g><path style="opacity:1" fill="#deb374" d="M 319.5,149.5 C 322.706,150.454 325.706,151.787 328.5,153.5C 329.5,153.833 330.167,154.5 330.5,155.5C 333.532,159.436 334.866,163.936 334.5,169C 334.356,173.21 333.856,177.376 333,181.5C 332.76,183.852 331.927,185.852 330.5,187.5C 332.325,179.629 332.825,171.629 332,163.5C 330.129,161.249 328.963,158.583 328.5,155.5C 325.187,153.698 322.187,151.698 319.5,149.5 Z"/></g>
<g><path style="opacity:1" fill="#242021" d="M 429.5,142.5 C 448.419,141.203 461.586,149.203 469,166.5C 480.341,157.41 492.841,150.243 506.5,145C 520.905,143.616 527.405,150.116 526,164.5C 523.467,173.238 519.133,180.905 513,187.5C 498.167,202.333 483.333,217.167 468.5,232C 467.271,232.781 465.938,233.281 464.5,233.5C 453.26,226.429 443.76,217.429 436,206.5C 427.48,194.46 420.813,181.46 416,167.5C 414.24,155.682 418.74,147.348 429.5,142.5 Z"/></g>
<g><path style="opacity:1" fill="#e66465" d="M 506.5,156.5 C 508.895,155.186 511.395,155.186 514,156.5C 514.498,159.482 514.665,162.482 514.5,165.5C 513.698,168.574 512.698,171.574 511.5,174.5C 501.505,185.828 491.172,196.828 480.5,207.5C 479.833,207.5 479.5,207.833 479.5,208.5C 477.999,209.752 476.332,210.752 474.5,211.5C 474.714,209.856 474.38,208.356 473.5,207C 475.291,206.585 476.624,205.585 477.5,204C 478.793,203.51 480.127,203.343 481.5,203.5C 481.357,201.738 481.691,200.071 482.5,198.5C 483.391,197.41 484.391,197.41 485.5,198.5C 486.386,197.675 486.719,196.675 486.5,195.5C 491.128,194.205 494.128,191.205 495.5,186.5C 499.694,185.147 501.694,182.147 501.5,177.5C 502.822,177.67 503.989,177.337 505,176.5C 507.911,173.01 510.578,169.344 513,165.5C 513.755,162.697 513.422,160.03 512,157.5C 511.667,157.833 511.333,158.167 511,158.5C 509.67,157.418 508.17,156.751 506.5,156.5 Z"/></g>
<g><path style="opacity:1" fill="#361816" d="M 451.5,154.5 C 453.394,155.048 455.06,156.048 456.5,157.5C 457.851,160.196 459.684,162.53 462,164.5C 462.333,163.833 462.667,163.167 463,162.5C 463.333,165.167 463.667,167.833 464,170.5C 464.333,170.167 464.667,169.833 465,169.5C 465.374,170.416 465.874,171.25 466.5,172C 468.833,172.667 471.167,172.667 473.5,172C 477.571,168.967 481.904,166.467 486.5,164.5C 486.167,165.167 485.833,165.833 485.5,166.5C 479.054,170.228 472.721,174.228 466.5,178.5C 465.186,177.687 464.019,176.687 463,175.5C 461.458,171.262 459.625,167.262 457.5,163.5C 456.31,159.974 454.31,156.974 451.5,154.5 Z"/></g>
<g><path style="opacity:1" fill="#371a16" d="M 511.5,174.5 C 512.698,171.574 513.698,168.574 514.5,165.5C 518.982,153.954 515.315,150.621 503.5,155.5C 503.47,154.503 503.97,153.836 505,153.5C 508.789,152.438 512.623,152.271 516.5,153C 518.442,154.472 519.442,156.472 519.5,159C 518.447,162.821 517.447,166.655 516.5,170.5C 514.501,171.508 512.834,172.841 511.5,174.5 Z"/></g>
<g><path style="opacity:1" fill="#481a19" d="M 447.5,152.5 C 441.206,150.169 434.873,150.002 428.5,152C 427.299,152.903 426.465,154.069 426,155.5C 425.501,159.821 425.334,164.154 425.5,168.5C 420.819,152.673 426.819,146.507 443.5,150C 445.437,150.122 446.77,150.955 447.5,152.5 Z"/></g>
<g><path style="opacity:1" fill="#f85f60" d="M 457.5,163.5 C 459.625,167.262 461.458,171.262 463,175.5C 464.019,176.687 465.186,177.687 466.5,178.5C 472.721,174.228 479.054,170.228 485.5,166.5C 486.873,166.657 488.207,166.49 489.5,166C 491.951,163.367 494.951,161.7 498.5,161C 500.041,159.629 501.375,158.129 502.5,156.5C 503.833,156.5 505.167,156.5 506.5,156.5C 508.17,156.751 509.67,157.418 511,158.5C 511.333,158.167 511.667,157.833 512,157.5C 513.422,160.03 513.755,162.697 513,165.5C 510.578,169.344 507.911,173.01 505,176.5C 503.989,177.337 502.822,177.67 501.5,177.5C 501.694,182.147 499.694,185.147 495.5,186.5C 494.128,191.205 491.128,194.205 486.5,195.5C 486.719,196.675 486.386,197.675 485.5,198.5C 484.391,197.41 483.391,197.41 482.5,198.5C 481.691,200.071 481.357,201.738 481.5,203.5C 480.127,203.343 478.793,203.51 477.5,204C 476.624,205.585 475.291,206.585 473.5,207C 474.38,208.356 474.714,209.856 474.5,211.5C 472.906,214.764 470.573,217.431 467.5,219.5C 465.473,219.662 463.473,219.495 461.5,219C 457.459,215.815 454.459,211.981 452.5,207.5C 451.5,207.5 450.5,207.5 449.5,207.5C 444.353,203.021 440.353,197.687 437.5,191.5C 437.005,189.518 436.505,187.518 436,185.5C 432.221,180.277 429.221,174.61 427,168.5C 424.068,153.432 429.901,148.265 444.5,153C 448.291,154.469 451.124,156.969 453,160.5C 454.4,161.748 455.9,162.748 457.5,163.5 Z"/></g>
<g><path style="opacity:1" fill="#d86869" d="M 502.5,156.5 C 501.375,158.129 500.041,159.629 498.5,161C 494.951,161.7 491.951,163.367 489.5,166C 488.207,166.49 486.873,166.657 485.5,166.5C 485.833,165.833 486.167,165.167 486.5,164.5C 491.833,161.833 497.167,159.167 502.5,156.5 Z"/></g>
<g><path style="opacity:1" fill="#d4696c" d="M 514.5,165.5 C 514.665,162.482 514.498,159.482 514,156.5C 511.395,155.186 508.895,155.186 506.5,156.5C 505.167,156.5 503.833,156.5 502.5,156.5C 502.5,155.833 502.833,155.5 503.5,155.5C 515.315,150.621 518.982,153.954 514.5,165.5 Z"/></g>
<g><path style="opacity:1" fill="#d76a6b" d="M 447.5,152.5 C 448.605,153.6 449.938,154.267 451.5,154.5C 454.31,156.974 456.31,159.974 457.5,163.5C 455.9,162.748 454.4,161.748 453,160.5C 451.124,156.969 448.291,154.469 444.5,153C 429.901,148.265 424.068,153.432 427,168.5C 429.221,174.61 432.221,180.277 436,185.5C 436.505,187.518 437.005,189.518 437.5,191.5C 433.74,186.412 430.406,181.079 427.5,175.5C 427.606,172.921 426.939,170.588 425.5,168.5C 425.334,164.154 425.501,159.821 426,155.5C 426.465,154.069 427.299,152.903 428.5,152C 434.873,150.002 441.206,150.169 447.5,152.5 Z"/></g>
<g><path style="opacity:1" fill="#dcae6e" d="M 191.5,199.5 C 191.665,196.15 191.498,192.817 191,189.5C 189.644,188.62 188.144,188.286 186.5,188.5C 186.167,188.5 185.833,188.5 185.5,188.5C 183.589,188.574 182.422,189.574 182,191.5C 181.333,194.833 181.333,198.167 182,201.5C 185.16,205.419 188.327,205.419 191.5,201.5C 191.64,203.124 190.973,204.29 189.5,205C 182.814,206.302 179.481,203.636 179.5,197C 179.573,187.409 183.907,184.575 192.5,188.5C 192.833,190.333 193.167,192.167 193.5,194C 193.453,196.295 192.787,198.129 191.5,199.5 Z"/></g>
<g><path style="opacity:1" fill="#311f10" d="M 330.5,155.5 C 331.978,155.238 333.311,155.571 334.5,156.5C 335.292,160.617 336.292,164.617 337.5,168.5C 335.455,180.136 332.289,191.469 328,202.5C 326.961,203.71 325.794,204.71 324.5,205.5C 327.066,199.698 329.066,193.698 330.5,187.5C 331.927,185.852 332.76,183.852 333,181.5C 333.856,177.376 334.356,173.21 334.5,169C 334.866,163.936 333.532,159.436 330.5,155.5 Z"/></g>
<g><path style="opacity:1" fill="#eab772" d="M 330.5,187.5 C 329.066,193.698 327.066,199.698 324.5,205.5C 317.532,218.764 310.032,231.764 302,244.5C 296.369,252.298 289.869,259.298 282.5,265.5C 281.554,260.949 283.387,258.616 288,258.5C 288.617,257.551 288.451,256.718 287.5,256C 288.793,255.51 290.127,255.343 291.5,255.5C 291.5,254.5 291.5,253.5 291.5,252.5C 295.685,251.489 297.018,248.989 295.5,245C 296.449,244.383 297.282,244.549 298,245.5C 298.324,242.012 300.158,240.012 303.5,239.5C 302.645,235.204 304.311,232.537 308.5,231.5C 312.087,222.739 315.92,214.073 320,205.5C 320.333,205.833 320.667,206.167 321,206.5C 321.783,204.567 321.283,203.067 319.5,202C 320.167,201.667 320.833,201.333 321.5,201C 320.465,199.493 320.632,197.993 322,196.5C 322.29,198.044 322.956,199.377 324,200.5C 324.333,200.167 324.667,199.833 325,199.5C 326.542,195.262 328.375,191.262 330.5,187.5 Z"/></g>
<g><path style="opacity:1" fill="#3e1415" d="M 511.5,174.5 C 510.277,177.274 508.777,179.941 507,182.5C 498.494,191.516 489.661,199.849 480.5,207.5C 491.172,196.828 501.505,185.828 511.5,174.5 Z"/></g>
<g><path style="opacity:1" fill="#eab670" d="M 251.5,183.5 C 262.487,180.656 266.654,184.656 264,195.5C 261.889,204.711 256.556,207.045 248,202.5C 246.035,194.852 247.202,188.519 251.5,183.5 Z"/></g>
<g><path style="opacity:1" fill="#321e0e" d="M 254.5,185.5 C 259.674,185.009 262.34,187.342 262.5,192.5C 262.378,195.698 261.545,198.698 260,201.5C 254.973,204.797 251.807,203.63 250.5,198C 251,194.5 251.5,191 252,187.5C 252.995,186.934 253.828,186.267 254.5,185.5 Z"/></g>
<g><path style="opacity:1" fill="#201e21" d="M 255.5,188.5 C 258.834,189.457 260.5,191.791 260.5,195.5C 259.525,199.819 257.025,201.153 253,199.5C 252.13,195.355 252.964,191.688 255.5,188.5 Z"/></g>
<g><path style="opacity:1" fill="#311e0e" d="M 185.5,188.5 C 183.578,192.276 182.745,196.276 183,200.5C 185.041,201.423 187.208,201.756 189.5,201.5C 189.665,198.15 189.498,194.817 189,191.5C 188.302,190.309 187.469,189.309 186.5,188.5C 188.144,188.286 189.644,188.62 191,189.5C 191.498,192.817 191.665,196.15 191.5,199.5C 191.5,200.167 191.5,200.833 191.5,201.5C 188.327,205.419 185.16,205.419 182,201.5C 181.333,198.167 181.333,194.833 182,191.5C 182.422,189.574 183.589,188.574 185.5,188.5 Z"/></g>
<g><path style="opacity:1" fill="#221e1d" d="M 185.5,188.5 C 185.833,188.5 186.167,188.5 186.5,188.5C 187.469,189.309 188.302,190.309 189,191.5C 189.498,194.817 189.665,198.15 189.5,201.5C 187.208,201.756 185.041,201.423 183,200.5C 182.745,196.276 183.578,192.276 185.5,188.5 Z"/></g>
<g><path style="opacity:1" fill="#35200d" d="M 128.5,159.5 C 128.167,160.167 127.833,160.833 127.5,161.5C 127.5,161.833 127.5,162.167 127.5,162.5C 124.626,166.259 122.792,170.593 122,175.5C 120.403,182.749 119.57,190.082 119.5,197.5C 120.328,209.298 121.995,220.964 124.5,232.5C 123.768,231.192 122.934,229.858 122,228.5C 117.357,208.48 117.357,188.48 122,168.5C 123.305,164.722 125.472,161.722 128.5,159.5 Z"/></g>
<g><path style="opacity:1" fill="#c76365" d="M 449.5,207.5 C 450.5,207.5 451.5,207.5 452.5,207.5C 454.459,211.981 457.459,215.815 461.5,219C 463.473,219.495 465.473,219.662 467.5,219.5C 466.746,221.446 465.412,222.279 463.5,222C 457.957,217.958 453.291,213.125 449.5,207.5 Z"/></g>
<g><path style="opacity:1" fill="#361a18" d="M 427.5,175.5 C 430.406,181.079 433.74,186.412 437.5,191.5C 440.353,197.687 444.353,203.021 449.5,207.5C 453.291,213.125 457.957,217.958 463.5,222C 465.412,222.279 466.746,221.446 467.5,219.5C 470.573,217.431 472.906,214.764 474.5,211.5C 476.332,210.752 477.999,209.752 479.5,208.5C 475.767,213.74 471.434,218.574 466.5,223C 465.5,223.167 464.5,223.333 463.5,223.5C 459.993,220.837 456.327,218.337 452.5,216C 451.257,214.846 450.257,213.512 449.5,212C 448.207,211.51 446.873,211.343 445.5,211.5C 444.315,206.536 442.149,202.203 439,198.5C 437.174,196.926 435.007,196.093 432.5,196C 433.43,194.806 434.097,193.473 434.5,192C 432.854,188.73 431.02,185.563 429,182.5C 428.023,180.26 427.523,177.927 427.5,175.5 Z"/></g>
<g><path style="opacity:1" fill="#e7b36d" d="M 127.5,162.5 C 124.495,171.022 122.828,179.855 122.5,189C 122.591,197.184 122.758,205.351 123,213.5C 123.414,213.043 123.914,212.709 124.5,212.5C 124.986,216.697 125.986,220.697 127.5,224.5C 127.154,225.696 126.654,225.696 126,224.5C 125.833,225.333 125.667,226.167 125.5,227C 126.883,230.367 127.717,233.867 128,237.5C 130.792,240.205 132.126,243.538 132,247.5C 134.292,248.79 136.292,250.457 138,252.5C 138.414,252.043 138.914,251.709 139.5,251.5C 140.029,254.257 141.029,256.757 142.5,259C 141.833,259.333 141.167,259.667 140.5,260C 142.174,261.506 143.174,263.339 143.5,265.5C 134.327,256.157 127.994,245.157 124.5,232.5C 121.995,220.964 120.328,209.298 119.5,197.5C 119.57,190.082 120.403,182.749 122,175.5C 122.792,170.593 124.626,166.259 127.5,162.5 Z"/></g>
<g><path style="opacity:1" fill="#e8b775" d="M 287.5,214.5 C 273.293,215.479 259.293,217.646 245.5,221C 244.167,222.333 244.167,223.667 245.5,225C 254.564,225.629 263.564,225.129 272.5,223.5C 271.653,224.966 270.32,225.8 268.5,226C 260.838,226.846 253.171,227.18 245.5,227C 242.542,224.872 241.876,222.206 243.5,219C 258.138,215.332 272.805,213.832 287.5,214.5 Z"/></g>
<g><path style="opacity:1" fill="#daae73" d="M 187.5,224.5 C 188.728,222.99 188.728,221.49 187.5,220C 183.179,219.501 178.846,219.334 174.5,219.5C 166.264,219.118 158.264,219.785 150.5,221.5C 149.167,221.5 147.833,221.5 146.5,221.5C 149.534,219.982 152.867,219.149 156.5,219C 167.167,218.333 177.833,218.333 188.5,219C 190.078,221.339 189.745,223.172 187.5,224.5 Z"/></g>
<g><path style="opacity:1" fill="#d4ab71" d="M 230.5,222.5 C 222.459,219.013 214.126,218.513 205.5,221C 204.429,221.852 203.429,222.685 202.5,223.5C 202.167,223.5 201.833,223.5 201.5,223.5C 201.574,221.589 202.574,220.422 204.5,220C 213.75,216.357 222.75,216.69 231.5,221C 230.944,221.383 230.611,221.883 230.5,222.5 Z"/></g>
<g><path style="opacity:1" fill="#5d401f" d="M 174.5,219.5 C 166.675,220.492 158.675,221.159 150.5,221.5C 158.264,219.785 166.264,219.118 174.5,219.5 Z"/></g>
<g><path style="opacity:1" fill="#2a1c12" d="M 174.5,219.5 C 178.846,219.334 183.179,219.501 187.5,220C 188.728,221.49 188.728,222.99 187.5,224.5C 173.549,225.465 159.549,225.799 145.5,225.5C 144.147,223.872 144.481,222.538 146.5,221.5C 147.833,221.5 149.167,221.5 150.5,221.5C 158.675,221.159 166.675,220.492 174.5,219.5 Z"/></g>
<g><path style="opacity:1" fill="#35210f" d="M 287.5,214.5 C 288.752,216.339 288.752,218.172 287.5,220C 282.506,221.364 277.506,222.531 272.5,223.5C 263.564,225.129 254.564,225.629 245.5,225C 244.167,223.667 244.167,222.333 245.5,221C 259.293,217.646 273.293,215.479 287.5,214.5 Z"/></g>
<g><path style="opacity:1" fill="#241f1a" d="M 281.5,216.5 C 283.167,216.5 284.833,216.5 286.5,216.5C 286.5,217.5 286.5,218.5 286.5,219.5C 273.524,221.498 260.524,222.998 247.5,224C 247.167,223.667 246.833,223.333 246.5,223C 247.623,221.956 248.956,221.29 250.5,221C 261.003,219.594 271.336,218.094 281.5,216.5 Z"/></g>
<g><path style="opacity:1" fill="#221e1e" d="M 200.5,225.5 C 200.833,224.833 201.167,224.167 201.5,223.5C 201.833,223.5 202.167,223.5 202.5,223.5C 209.382,221.527 216.382,220.694 223.5,221C 226.651,222.659 229.318,224.826 231.5,227.5C 230.214,229.626 229.381,231.959 229,234.5C 219.901,238.261 210.734,238.261 201.5,234.5C 200.516,231.572 200.183,228.572 200.5,225.5 Z"/></g>
<g><path style="opacity:1" fill="#ddaf6c" d="M 187.5,224.5 C 186.816,226.185 185.483,227.185 183.5,227.5C 182.614,228.325 182.281,229.325 182.5,230.5C 182.923,232.781 182.256,234.448 180.5,235.5C 181.301,233.958 181.634,232.292 181.5,230.5C 170.277,231.479 159.611,234.479 149.5,239.5C 149.414,238.504 149.748,237.671 150.5,237C 157.899,234.797 164.899,231.797 171.5,228C 163.167,227.667 154.833,227.333 146.5,227C 145.944,226.617 145.611,226.117 145.5,225.5C 159.549,225.799 173.549,225.465 187.5,224.5 Z"/></g>
<g><path style="opacity:1" fill="#2e1d0f" d="M 279.5,231.5 C 280.167,231.5 280.5,231.833 280.5,232.5C 280.586,233.496 280.252,234.329 279.5,235C 265.93,237.388 252.263,238.054 238.5,237C 237.549,236.282 237.383,235.449 238,234.5C 239.399,233.773 240.899,233.273 242.5,233C 254.808,231.862 267.141,231.362 279.5,231.5 Z"/></g>
<g><path style="opacity:1" fill="#331f0b" d="M 230.5,222.5 C 235.047,231.019 232.714,236.519 223.5,239C 215.605,239.701 207.939,238.701 200.5,236C 197.981,232.356 197.981,228.856 200.5,225.5C 200.183,228.572 200.516,231.572 201.5,234.5C 210.734,238.261 219.901,238.261 229,234.5C 229.381,231.959 230.214,229.626 231.5,227.5C 229.318,224.826 226.651,222.659 223.5,221C 216.382,220.694 209.382,221.527 202.5,223.5C 203.429,222.685 204.429,221.852 205.5,221C 214.126,218.513 222.459,219.013 230.5,222.5 Z"/></g>
<g><path style="opacity:1" fill="#2b1d13" d="M 180.5,235.5 C 170.118,238.345 159.785,241.345 149.5,244.5C 147.296,243.218 146.962,241.551 148.5,239.5C 148.833,239.5 149.167,239.5 149.5,239.5C 159.611,234.479 170.277,231.479 181.5,230.5C 181.634,232.292 181.301,233.958 180.5,235.5 Z"/></g>
<g><path style="opacity:1" fill="#e8b36b" d="M 230.5,222.5 C 234.92,223.78 236.587,226.78 235.5,231.5C 247.019,231.198 258.519,230.532 270,229.5C 273.576,229.515 276.742,230.182 279.5,231.5C 267.141,231.362 254.808,231.862 242.5,233C 240.899,233.273 239.399,233.773 238,234.5C 237.383,235.449 237.549,236.282 238.5,237C 252.263,238.054 265.93,237.388 279.5,235C 280.252,234.329 280.586,233.496 280.5,232.5C 281.954,233.52 282.287,234.687 281.5,236C 266.955,238.492 252.289,239.159 237.5,238C 236.975,237.308 236.308,236.808 235.5,236.5C 227.523,240.543 219.023,242.543 210,242.5C 206.073,241.323 202.406,239.656 199,237.5C 197.433,238.856 195.6,239.523 193.5,239.5C 193.286,241.144 193.62,242.644 194.5,244C 193.837,245.518 192.837,246.685 191.5,247.5C 191.5,246.833 191.5,246.167 191.5,245.5C 191.67,244.178 191.337,243.011 190.5,242C 187.833,241.333 185.167,241.333 182.5,242C 177.459,243.892 172.792,246.392 168.5,249.5C 169.292,248.033 169.292,246.7 168.5,245.5C 161.397,243.501 154.397,244.168 147.5,247.5C 146.727,245.187 146.06,242.854 145.5,240.5C 146.325,239.614 147.325,239.281 148.5,239.5C 146.962,241.551 147.296,243.218 149.5,244.5C 159.785,241.345 170.118,238.345 180.5,235.5C 182.256,234.448 182.923,232.781 182.5,230.5C 183.473,232.25 184.807,233.75 186.5,235C 186.167,235.333 185.833,235.667 185.5,236C 188.047,236.067 190.214,236.901 192,238.5C 193.2,236.588 194.867,235.255 197,234.5C 197.499,230.848 197.665,227.182 197.5,223.5C 198.833,223.5 200.167,223.5 201.5,223.5C 201.167,224.167 200.833,224.833 200.5,225.5C 197.981,228.856 197.981,232.356 200.5,236C 207.939,238.701 215.605,239.701 223.5,239C 232.714,236.519 235.047,231.019 230.5,222.5 Z"/></g>
<g><path style="opacity:1" fill="#e1b47a" d="M 322.5,239.5 C 321.5,239.5 320.5,239.5 319.5,239.5C 320.157,242.841 318.824,244.841 315.5,245.5C 312.472,249.361 309.639,253.361 307,257.5C 304.234,260.777 301.067,263.443 297.5,265.5C 300.547,262.455 303.213,259.122 305.5,255.5C 310.161,250.161 314.495,244.494 318.5,238.5C 320.24,237.191 321.573,237.524 322.5,239.5 Z"/></g>
<g><path style="opacity:1" fill="#2d2013" d="M 191.5,245.5 C 182.071,249.714 172.738,254.214 163.5,259C 161.26,259.977 158.927,260.477 156.5,260.5C 156.31,258.041 157.31,256.374 159.5,255.5C 162.672,253.748 165.672,251.748 168.5,249.5C 172.792,246.392 177.459,243.892 182.5,242C 185.167,241.333 187.833,241.333 190.5,242C 191.337,243.011 191.67,244.178 191.5,245.5 Z"/></g>
<g><path style="opacity:1" fill="#ddb276" d="M 325.5,240.5 C 340.725,249.279 356.391,257.279 372.5,264.5C 373.833,265.5 375.167,266.5 376.5,267.5C 360.153,260.324 344.153,252.658 328.5,244.5C 327.174,243.358 326.174,242.024 325.5,240.5 Z"/></g>
<g><path style="opacity:1" fill="#f7b760" d="M 322.5,239.5 C 323.609,239.557 324.609,239.89 325.5,240.5C 326.174,242.024 327.174,243.358 328.5,244.5C 344.153,252.658 360.153,260.324 376.5,267.5C 377.492,267.328 378.158,267.662 378.5,268.5C 378.577,269.75 379.244,270.583 380.5,271C 378.699,271.317 378.366,271.984 379.5,273C 385.119,272.898 389.786,274.898 393.5,279C 397.894,280.409 402.228,281.909 406.5,283.5C 416.209,291.364 425.542,299.697 434.5,308.5C 436.522,315.199 439.856,321.199 444.5,326.5C 448.078,349.296 451.244,372.296 454,395.5C 454.383,396.056 454.883,396.389 455.5,396.5C 455.5,397.5 455.5,398.5 455.5,399.5C 455.962,418.535 456.962,437.535 458.5,456.5C 457.5,456.5 456.5,456.5 455.5,456.5C 455.785,454.712 455.452,453.045 454.5,451.5C 454.167,452.167 453.833,452.833 453.5,453.5C 454.467,455.762 455.134,458.095 455.5,460.5C 453.5,460.833 451.5,461.167 449.5,461.5C 449.64,463.124 448.973,464.29 447.5,465C 440.638,466.572 433.972,468.405 427.5,470.5C 408.286,470.384 389.953,471.717 372.5,474.5C 371.398,475.176 370.398,475.842 369.5,476.5C 368.833,476.5 368.167,476.5 367.5,476.5C 350.287,476.44 333.121,477.107 316,478.5C 314.56,477.852 313.06,477.519 311.5,477.5C 311.773,461.983 313.273,446.317 316,430.5C 317.5,425.164 319.833,420.164 323,415.5C 323.977,413.26 324.477,410.927 324.5,408.5C 329.387,406.617 333.054,403.284 335.5,398.5C 337.657,396.588 339.991,394.921 342.5,393.5C 345.402,392.422 348.402,391.756 351.5,391.5C 357.92,391.288 364.253,390.455 370.5,389C 373.023,387.64 375.023,385.807 376.5,383.5C 377.283,381.657 377.95,379.657 378.5,377.5C 376.052,375.192 373.219,373.526 370,372.5C 366.606,373.66 363.273,373.66 360,372.5C 356.754,372.97 353.92,374.304 351.5,376.5C 346.818,377.268 342.151,378.101 337.5,379C 334.205,381.434 330.538,383.101 326.5,384C 326.833,384.333 327.167,384.667 327.5,385C 325.561,385.908 324.561,387.408 324.5,389.5C 322.833,389.5 321.167,389.5 319.5,389.5C 319.271,391.433 318.438,393.1 317,394.5C 314.094,396.372 311.26,398.372 308.5,400.5C 309.246,401.736 309.579,403.07 309.5,404.5C 308.127,404.343 306.793,404.51 305.5,405C 306.554,406.388 306.72,407.888 306,409.5C 300.644,419.566 297.311,430.232 296,441.5C 295.456,454.527 295.456,467.527 296,480.5C 293.061,481.128 290.228,481.795 287.5,482.5C 266.167,482.5 244.833,482.5 223.5,482.5C 223.5,473.5 223.5,464.5 223.5,455.5C 223.667,443.162 223.5,430.829 223,418.5C 222.667,419.167 222.333,419.833 222,420.5C 220.933,412.36 220.099,404.194 219.5,396C 218.849,393.496 217.182,392.163 214.5,392C 211.5,391.333 208.5,391.333 205.5,392C 204.072,405.904 203.405,419.904 203.5,434C 203.953,445.089 203.953,456.089 203.5,467C 204.764,472.444 205.431,477.778 205.5,483C 200.845,483.499 196.179,483.666 191.5,483.5C 191.5,482.5 191.5,481.5 191.5,480.5C 188.15,480.335 184.817,480.502 181.5,481C 180.359,481.741 180.359,482.575 181.5,483.5C 178.702,484.689 176.036,484.356 173.5,482.5C 168.563,485.168 163.23,486.168 157.5,485.5C 155.743,482.316 154.243,478.983 153,475.5C 152.083,464.607 150.583,453.941 148.5,443.5C 147.012,434.374 146.345,425.041 146.5,415.5C 146.244,373.809 147.077,332.142 149,290.5C 149.308,289.692 149.808,289.025 150.5,288.5C 158.375,293.013 166.708,296.346 175.5,298.5C 175.97,299.693 176.97,300.36 178.5,300.5C 184.413,302.224 190.413,303.724 196.5,305C 208.5,305.667 220.5,305.667 232.5,305C 240.049,301.959 247.716,299.292 255.5,297C 257.584,296.303 259.251,295.136 260.5,293.5C 265.276,292.275 269.943,290.775 274.5,289C 277.666,284.492 281.666,283.325 286.5,285.5C 286.623,283.622 286.623,281.789 286.5,280C 287.563,278.812 288.897,278.312 290.5,278.5C 292.559,274.05 294.892,269.717 297.5,265.5C 301.067,263.443 304.234,260.777 307,257.5C 309.639,253.361 312.472,249.361 315.5,245.5C 318.824,244.841 320.157,242.841 319.5,239.5C 320.5,239.5 321.5,239.5 322.5,239.5 Z"/></g>
<g><path style="opacity:1" fill="#e2b271" d="M 267.5,248.5 C 258.004,245.935 248.337,244.268 238.5,243.5C 238.5,244.833 238.5,246.167 238.5,247.5C 244.259,249.353 249.925,251.353 255.5,253.5C 252.15,253.665 248.817,253.498 245.5,253C 242.609,251.208 239.609,249.708 236.5,248.5C 235.683,244.185 237.349,241.851 241.5,241.5C 248.225,242.348 254.891,243.515 261.5,245C 263.879,245.716 265.879,246.883 267.5,248.5 Z"/></g>
<g><path style="opacity:1" fill="#2b1e13" d="M 267.5,248.5 C 270.253,249.593 270.92,251.426 269.5,254C 264.796,254.648 260.129,254.481 255.5,253.5C 249.925,251.353 244.259,249.353 238.5,247.5C 238.5,246.167 238.5,244.833 238.5,243.5C 248.337,244.268 258.004,245.935 267.5,248.5 Z"/></g>
<g><path style="opacity:1" fill="#e6b677" d="M 191.5,245.5 C 191.5,246.167 191.5,246.833 191.5,247.5C 183.201,251.488 174.868,255.155 166.5,258.5C 166.5,259.5 166.5,260.5 166.5,261.5C 162.774,261.823 159.107,261.489 155.5,260.5C 154.113,256.926 155.446,255.259 159.5,255.5C 157.31,256.374 156.31,258.041 156.5,260.5C 158.927,260.477 161.26,259.977 163.5,259C 172.738,254.214 182.071,249.714 191.5,245.5 Z"/></g>
<g><path style="opacity:1" fill="#281f18" d="M 324.5,205.5 C 324.662,207.527 324.495,209.527 324,211.5C 320.662,215.211 319.829,219.378 321.5,224C 318.437,225.066 316.937,227.233 317,230.5C 314.207,228.114 313.374,228.781 314.5,232.5C 317.469,234.659 320.803,235.826 324.5,236C 328.907,239.685 333.907,241.018 339.5,240C 338.5,241 337.5,242 336.5,243C 341.022,245.408 345.356,248.075 349.5,251C 351.112,251.72 352.612,251.554 354,250.5C 359.482,256 365.648,260.666 372.5,264.5C 356.391,257.279 340.725,249.279 325.5,240.5C 324.609,239.89 323.609,239.557 322.5,239.5C 321.573,237.524 320.24,237.191 318.5,238.5C 314.495,244.494 310.161,250.161 305.5,255.5C 303.213,259.122 300.547,262.455 297.5,265.5C 293.284,269.642 288.95,273.809 284.5,278C 282.595,279.421 280.595,280.588 278.5,281.5C 276.236,282.219 273.903,282.552 271.5,282.5C 271.5,283.5 271.5,284.5 271.5,285.5C 268.939,286.385 266.606,287.718 264.5,289.5C 264.539,288.417 264.873,287.417 265.5,286.5C 263.637,285.274 262.637,283.941 262.5,282.5C 258.679,283.959 255.679,286.292 253.5,289.5C 251.253,288.626 248.92,288.292 246.5,288.5C 245.833,288.5 245.5,288.167 245.5,287.5C 252.64,285.12 259.306,281.786 265.5,277.5C 271.727,274.27 277.393,270.27 282.5,265.5C 289.869,259.298 296.369,252.298 302,244.5C 310.032,231.764 317.532,218.764 324.5,205.5 Z"/></g>
<g><path style="opacity:1" fill="#211f1b" d="M 305.5,255.5 C 303.801,255.66 302.134,255.494 300.5,255C 299.978,254.439 299.645,253.772 299.5,253C 301.491,248.181 303.824,243.681 306.5,239.5C 307.5,239.5 308.5,239.5 309.5,239.5C 309.147,237.365 309.98,236.032 312,235.5C 313.951,235.888 315.451,236.888 316.5,238.5C 312.231,244.038 308.564,249.704 305.5,255.5 Z"/></g>
<g><path style="opacity:1" fill="#e7b671" d="M 220.5,253.5 C 223.167,253.5 225.833,253.5 228.5,253.5C 229.376,256.799 229.543,260.132 229,263.5C 220.285,269.41 211.119,270.077 201.5,265.5C 201.335,262.482 201.502,259.482 202,256.5C 202.5,256 203,255.5 203.5,255C 207.169,255.082 210.669,255.915 214,257.5C 216.837,257.147 219.003,255.813 220.5,253.5 Z"/></g>
<g><path style="opacity:1" fill="#231e1a" d="M 225.5,262.5 C 220.493,264.703 215.326,265.036 210,263.5C 207.866,262.915 206.366,261.582 205.5,259.5C 207.432,260.033 209.432,260.033 211.5,259.5C 211.833,259.5 212.167,259.5 212.5,259.5C 214.628,260.629 216.961,260.796 219.5,260C 221.169,258.331 223.169,257.498 225.5,257.5C 225.5,259.167 225.5,260.833 225.5,262.5 Z"/></g>
<g><path style="opacity:1" fill="#36220f" d="M 225.5,262.5 C 225.5,260.833 225.5,259.167 225.5,257.5C 223.169,257.498 221.169,258.331 219.5,260C 216.961,260.796 214.628,260.629 212.5,259.5C 216.281,260.211 219.281,259.045 221.5,256C 224.868,254.795 227.202,255.795 228.5,259C 228.022,260.642 227.022,261.809 225.5,262.5 Z"/></g>
<g><path style="opacity:1" fill="#341e10" d="M 211.5,259.5 C 209.432,260.033 207.432,260.033 205.5,259.5C 206.366,261.582 207.866,262.915 210,263.5C 215.326,265.036 220.493,264.703 225.5,262.5C 224.547,264.61 222.881,265.777 220.5,266C 212.37,268.243 206.37,265.743 202.5,258.5C 205.746,255.81 208.746,256.144 211.5,259.5 Z"/></g>
<g><path style="opacity:1" fill="#e6b570" d="M 378.5,268.5 C 388.446,272.471 397.779,277.471 406.5,283.5C 402.228,281.909 397.894,280.409 393.5,279C 389.786,274.898 385.119,272.898 379.5,273C 378.366,271.984 378.699,271.317 380.5,271C 379.244,270.583 378.577,269.75 378.5,268.5 Z"/></g>
<g><path style="opacity:1" fill="#e5b36b" d="M 143.5,265.5 C 146.144,267.628 149.144,269.128 152.5,270C 154.29,272.491 156.457,274.658 159,276.5C 159.333,275.833 159.667,275.167 160,274.5C 162.379,276.789 164.879,279.122 167.5,281.5C 173.443,282.98 179.109,285.147 184.5,288C 190.461,288.997 196.461,289.663 202.5,290C 203.907,291.452 205.407,291.285 207,289.5C 211.856,290.55 216.689,290.216 221.5,288.5C 222.939,289.063 224.439,289.397 226,289.5C 231.618,287.744 237.452,287.077 243.5,287.5C 220.873,295.386 198.207,295.386 175.5,287.5C 174.833,287.5 174.167,287.5 173.5,287.5C 164.653,282.99 156.32,277.656 148.5,271.5C 146.833,269.5 145.167,267.5 143.5,265.5 Z"/></g>
<g><path style="opacity:1" fill="#eab570" d="M 265.5,277.5 C 259.306,281.786 252.64,285.12 245.5,287.5C 244.833,287.5 244.167,287.5 243.5,287.5C 245.991,285.648 248.491,283.648 251,281.5C 251.483,280.552 251.649,279.552 251.5,278.5C 253.451,278.227 254.951,278.893 256,280.5C 259.039,279.115 262.206,278.115 265.5,277.5 Z"/></g>
<g><path style="opacity:1" fill="#edb76c" d="M 297.5,265.5 C 294.892,269.717 292.559,274.05 290.5,278.5C 288.897,278.312 287.563,278.812 286.5,280C 286.623,281.789 286.623,283.622 286.5,285.5C 281.666,283.325 277.666,284.492 274.5,289C 269.943,290.775 265.276,292.275 260.5,293.5C 266.844,289.996 272.844,285.996 278.5,281.5C 280.595,280.588 282.595,279.421 284.5,278C 288.95,273.809 293.284,269.642 297.5,265.5 Z"/></g>
<g><path style="opacity:1" fill="#282016" d="M 148.5,271.5 C 156.32,277.656 164.653,282.99 173.5,287.5C 170.298,285.898 167.298,286.232 164.5,288.5C 168.609,293.492 173.943,296.325 180.5,297C 181.756,297.417 182.423,298.25 182.5,299.5C 180.139,299.326 177.806,298.993 175.5,298.5C 165.843,295.171 156.843,290.504 148.5,284.5C 148.67,283.178 148.337,282.011 147.5,281C 149.107,281.019 150.774,281.185 152.5,281.5C 151.167,278.167 149.833,274.833 148.5,271.5 Z"/></g>
<g><path style="opacity:1" fill="#e1b376" d="M 406.5,283.5 C 409.09,284.128 411.423,285.295 413.5,287C 422.065,292.731 429.065,299.898 434.5,308.5C 425.542,299.697 416.209,291.364 406.5,283.5 Z"/></g>
<g><path style="opacity:1" fill="#221e1d" d="M 264.5,289.5 C 252.619,295.477 239.952,299.31 226.5,301C 212.127,301.637 197.794,301.137 183.5,299.5C 183.167,299.5 182.833,299.5 182.5,299.5C 182.423,298.25 181.756,297.417 180.5,297C 173.943,296.325 168.609,293.492 164.5,288.5C 167.298,286.232 170.298,285.898 173.5,287.5C 174.167,287.5 174.833,287.5 175.5,287.5C 175.5,288.833 175.5,290.167 175.5,291.5C 198.945,295.927 222.278,295.427 245.5,290C 246.056,289.617 246.389,289.117 246.5,288.5C 248.92,288.292 251.253,288.626 253.5,289.5C 255.679,286.292 258.679,283.959 262.5,282.5C 262.637,283.941 263.637,285.274 265.5,286.5C 264.873,287.417 264.539,288.417 264.5,289.5 Z"/></g>
<g><path style="opacity:1" fill="#2e1f0f" d="M 175.5,287.5 C 198.207,295.386 220.873,295.386 243.5,287.5C 244.167,287.5 244.833,287.5 245.5,287.5C 245.5,288.167 245.833,288.5 246.5,288.5C 246.389,289.117 246.056,289.617 245.5,290C 222.278,295.427 198.945,295.927 175.5,291.5C 175.5,290.167 175.5,288.833 175.5,287.5 Z"/></g>
<g><path style="opacity:1" fill="#d9b076" d="M 148.5,284.5 C 156.843,290.504 165.843,295.171 175.5,298.5C 166.708,296.346 158.375,293.013 150.5,288.5C 149.808,289.025 149.308,289.692 149,290.5C 147.077,332.142 146.244,373.809 146.5,415.5C 145.503,398.341 145.17,381.008 145.5,363.5C 146.214,343.508 146.547,323.508 146.5,303.5C 147.167,297.167 147.833,290.833 148.5,284.5 Z"/></g>
<g><path style="opacity:1" fill="#332110" d="M 278.5,281.5 C 272.844,285.996 266.844,289.996 260.5,293.5C 240.361,302.078 219.361,305.245 197.5,303C 192.56,302.432 187.893,301.265 183.5,299.5C 197.794,301.137 212.127,301.637 226.5,301C 239.952,299.31 252.619,295.477 264.5,289.5C 266.606,287.718 268.939,286.385 271.5,285.5C 271.5,284.5 271.5,283.5 271.5,282.5C 273.903,282.552 276.236,282.219 278.5,281.5 Z"/></g>
<g><path style="opacity:1" fill="#eab871" d="M 260.5,293.5 C 259.251,295.136 257.584,296.303 255.5,297C 247.716,299.292 240.049,301.959 232.5,305C 220.5,305.667 208.5,305.667 196.5,305C 190.413,303.724 184.413,302.224 178.5,300.5C 176.97,300.36 175.97,299.693 175.5,298.5C 177.806,298.993 180.139,299.326 182.5,299.5C 182.833,299.5 183.167,299.5 183.5,299.5C 187.893,301.265 192.56,302.432 197.5,303C 219.361,305.245 240.361,302.078 260.5,293.5 Z"/></g>
<g><path style="opacity:1" fill="#211f20" d="M 545.5,689.5 C 544.683,687.031 544.183,684.365 544,681.5C 543.503,684.146 543.336,686.813 543.5,689.5C 542.167,689.5 540.833,689.5 539.5,689.5C 539.183,693.927 539.183,698.261 539.5,702.5C 537.243,703.564 535.243,703.064 533.5,701C 534.333,698.919 534.333,696.752 533.5,694.5C 533.667,681.496 533.5,668.496 533,655.5C 532.239,645.326 530.739,635.993 528.5,627.5C 527.566,626.432 527.232,625.099 527.5,623.5C 528.167,618.319 528.833,612.985 529.5,607.5C 532.021,604.907 534.521,604.907 537,607.5C 538.226,610.952 539.726,614.285 541.5,617.5C 540.477,619.895 541.477,620.895 544.5,620.5C 545.867,628.121 548.533,635.287 552.5,642C 552.167,642.333 551.833,642.667 551.5,643C 552.769,648.378 555.436,652.878 559.5,656.5C 561.062,659.974 561.895,663.64 562,667.5C 563.817,671.8 566.15,675.8 569,679.5C 569.436,681.847 569.936,684.181 570.5,686.5C 569.612,688.155 569.112,689.822 569,691.5C 570.018,693.564 571.351,693.898 573,692.5C 574.811,693.424 574.645,694.257 572.5,695C 574.101,695.273 575.601,695.773 577,696.5C 576.806,700.26 577.973,703.426 580.5,706C 582.764,705.302 584.597,705.802 586,707.5C 586.49,706.207 586.657,704.873 586.5,703.5C 587.5,703.5 588.5,703.5 589.5,703.5C 589.793,696.636 590.126,689.802 590.5,683C 587.571,665.11 585.904,647.11 585.5,629C 586.556,605.771 588.556,582.604 591.5,559.5C 591.5,558.833 591.5,558.167 591.5,557.5C 595.015,552.561 596.848,546.894 597,540.5C 599.667,533.165 602.333,525.832 605,518.5C 605.333,516.167 605.667,513.833 606,511.5C 609.261,506.833 612.095,502.333 614.5,498C 613.426,497.261 612.759,496.261 612.5,495C 614.329,489.216 616.162,483.383 618,477.5C 619.548,472.472 618.215,468.472 614,465.5C 612.472,462.583 611.139,459.583 610,456.5C 609.329,455.748 608.496,455.414 607.5,455.5C 602.984,443.809 598.651,431.976 594.5,420C 595.672,418.108 595.172,416.608 593,415.5C 592.055,415.905 591.388,416.572 591,417.5C 590.318,411.87 588.318,406.87 585,402.5C 584.58,398.809 584.08,395.142 583.5,391.5C 582.07,391.421 580.736,391.754 579.5,392.5C 578.097,398.987 574.93,404.32 570,408.5C 567.655,411.856 565.822,415.523 564.5,419.5C 561.215,419.698 559.548,421.365 559.5,424.5C 557.193,424.986 555.027,424.986 553,424.5C 553.207,426.751 553.373,429.085 553.5,431.5C 552.564,432.974 551.23,433.974 549.5,434.5C 545.368,435.598 541.202,436.598 537,437.5C 533.649,436.574 530.483,435.241 527.5,433.5C 529.44,439.579 527.107,442.579 520.5,442.5C 520.657,443.873 520.49,445.207 520,446.5C 519.667,446.167 519.333,445.833 519,445.5C 518.545,448.816 516.712,450.982 513.5,452C 510.665,456.431 506.665,459.431 501.5,461C 495.975,465.934 489.641,469.6 482.5,472C 477.924,473.476 473.257,473.81 468.5,473C 469.849,472.228 470.682,471.061 471,469.5C 471.333,470.5 471.667,471.5 472,472.5C 474.566,467.232 473.066,465.565 467.5,467.5C 469.027,469.33 468.527,470.33 466,470.5C 463.799,471.855 462.132,471.522 461,469.5C 460.178,472.117 459.678,474.784 459.5,477.5C 457.856,477.286 456.356,477.62 455,478.5C 453.518,476.219 451.851,476.219 450,478.5C 449.311,477.643 448.478,476.977 447.5,476.5C 445.629,477.767 443.796,477.767 442,476.5C 440.562,477.9 439.729,479.567 439.5,481.5C 437.498,482.755 434.831,483.422 431.5,483.5C 431.5,484.5 431.5,485.5 431.5,486.5C 420.531,487.167 409.864,488.833 399.5,491.5C 393.833,491.5 388.167,491.5 382.5,491.5C 378.133,491.558 373.466,491.391 368.5,491C 367.234,490.691 366.067,490.191 365,489.5C 361.284,490.424 357.784,491.09 354.5,491.5C 353.201,490.91 352.368,489.91 352,488.5C 351.667,488.833 351.333,489.167 351,489.5C 350.021,487.68 348.521,486.513 346.5,486C 347.108,485.13 347.941,484.63 349,484.5C 350.396,485.394 351.896,486.061 353.5,486.5C 355.223,485.448 356.89,485.448 358.5,486.5C 359.672,486.081 360.672,485.415 361.5,484.5C 360.04,482.578 358.373,481.911 356.5,482.5C 356.833,481.833 357.167,481.167 357.5,480.5C 360.768,479.513 364.102,479.18 367.5,479.5C 367.351,480.552 367.517,481.552 368,482.5C 372.832,482.11 377.832,481.444 383,480.5C 387.864,481.275 393.03,481.609 398.5,481.5C 398.622,477.162 398.955,476.828 399.5,480.5C 401.881,479.58 404.214,479.58 406.5,480.5C 408.801,479.044 411.135,478.711 413.5,479.5C 414.59,478.273 415.924,477.44 417.5,477C 421.167,476.333 424.833,476.333 428.5,477C 425.289,478.153 421.956,478.82 418.5,479C 417.167,479.667 417.167,480.333 418.5,481C 422.316,481.206 425.982,481.372 429.5,481.5C 431.94,480.107 434.607,479.273 437.5,479C 436.051,477.883 434.384,477.216 432.5,477C 433.333,476.167 434.167,475.333 435,474.5C 435.77,475.598 436.603,475.598 437.5,474.5C 442.999,470.92 448.999,468.087 455.5,466C 457.141,464.871 458.141,463.371 458.5,461.5C 459.167,461.5 459.833,461.5 460.5,461.5C 461.75,461.423 462.583,460.756 463,459.5C 463.667,451.833 463.667,444.167 463,436.5C 462.667,436.833 462.333,437.167 462,437.5C 461.856,433.496 462.189,429.496 463,425.5C 463.192,427.577 463.692,429.577 464.5,431.5C 464.833,430.5 465.167,429.5 465.5,428.5C 464.838,425.811 464.838,422.978 465.5,420C 465.167,418.5 464.833,417 464.5,415.5C 463.575,416.641 462.741,416.641 462,415.5C 460.312,406.123 458.812,396.623 457.5,387C 457.423,384.949 457.923,383.116 459,381.5C 460.735,383.868 461.902,383.368 462.5,380C 462.758,374.279 462.258,368.446 461,362.5C 460.667,361.833 460.333,361.167 460,360.5C 459.814,362.9 459.314,365.234 458.5,367.5C 457.217,364.628 457.217,361.795 458.5,359C 457.044,356.734 456.21,354.234 456,351.5C 455.167,350.667 454.333,349.833 453.5,349C 453.977,346.101 454.977,343.434 456.5,341C 457.908,340.685 459.241,341.018 460.5,342C 459.426,342.739 458.759,343.739 458.5,345C 459.185,347.795 459.685,350.628 460,353.5C 460.333,352.833 460.667,352.167 461,351.5C 461.333,352.833 461.667,354.167 462,355.5C 462.497,352.854 462.664,350.187 462.5,347.5C 466.904,385.069 471.571,422.736 476.5,460.5C 490.682,455.314 503.349,447.648 514.5,437.5C 498.8,425.173 494.966,409.84 503,391.5C 517.122,369.711 534.956,351.544 556.5,337C 566.326,330.946 576.992,327.946 588.5,328C 604.209,311.981 623.376,304.814 646,306.5C 654.85,306.102 663.517,307.102 672,309.5C 682.268,304.755 692.768,304.255 703.5,308C 715.015,312.847 724.848,320.013 733,329.5C 754.542,349.728 769.542,374.061 778,402.5C 781.181,416.131 775.848,424.131 762,426.5C 743.845,421.352 728.512,411.686 716,397.5C 716.92,422.645 713.92,447.312 707,471.5C 702.057,486.243 693.557,498.41 681.5,508C 669.967,514.275 658.633,513.942 647.5,507C 644.5,504.667 641.5,502.333 638.5,500C 634.657,495.326 630.657,490.826 626.5,486.5C 609.302,528.656 600.635,572.489 600.5,618C 601.333,647.498 601.5,676.998 601,706.5C 599.311,716.021 593.811,721.688 584.5,723.5C 575.382,721.222 569.215,715.555 566,706.5C 560.313,689.105 553.647,672.105 546,655.5C 546.738,666.837 546.571,678.17 545.5,689.5 Z"/></g>
<g><path style="opacity:1" fill="#e4b372" d="M 434.5,308.5 C 439.365,313.556 442.699,319.556 444.5,326.5C 439.856,321.199 436.522,315.199 434.5,308.5 Z"/></g>
<g><path style="opacity:1" fill="#8a5a45" d="M 659.5,317.5 C 659.833,317.5 660.167,317.5 660.5,317.5C 661.287,319.104 662.62,319.771 664.5,319.5C 664.251,331.1 667.918,341.1 675.5,349.5C 683.665,361.514 692.832,372.847 703,383.5C 703.667,399.5 703.667,415.5 703,431.5C 701.662,442.359 699.495,453.025 696.5,463.5C 693.778,468.668 691.444,474.001 689.5,479.5C 688.167,479.5 686.833,479.5 685.5,479.5C 685.567,481.401 685.233,483.234 684.5,485C 684.15,486.257 683.483,486.591 682.5,486C 680.407,481.779 678.24,477.612 676,473.5C 674.89,471.963 673.39,471.297 671.5,471.5C 663.348,465.57 655.014,465.237 646.5,470.5C 645.504,470.414 644.671,470.748 644,471.5C 643.502,474.817 643.335,478.15 643.5,481.5C 642.5,481.5 641.5,481.5 640.5,481.5C 634.589,474.011 628.923,466.345 623.5,458.5C 623.107,456.716 622.441,455.05 621.5,453.5C 621.657,452.127 621.49,450.793 621,449.5C 606.986,427.807 597.986,404.141 594,378.5C 593.501,372.843 593.334,367.176 593.5,361.5C 599.716,354.348 602.216,346.015 601,336.5C 602.026,333.307 604.192,331.974 607.5,332.5C 607.281,331.325 607.614,330.325 608.5,329.5C 612.038,329.036 615.038,327.536 617.5,325C 619.899,324.289 622.232,324.456 624.5,325.5C 625.981,324.52 627.315,323.353 628.5,322C 638.514,318.753 648.847,317.253 659.5,317.5 Z"/></g>
<g><path style="opacity:1" fill="#2c1e19" d="M 611.5,325.5 C 606.32,328.606 601.653,332.439 597.5,337C 598.572,341.124 598.738,345.29 598,349.5C 596.173,353.467 594.673,357.467 593.5,361.5C 592.003,363.29 591.336,365.456 591.5,368C 592.382,388.151 597.049,407.318 605.5,425.5C 603.926,425.063 602.759,424.063 602,422.5C 600.755,416.678 598.422,411.345 595,406.5C 594.141,398.805 593.308,391.139 592.5,383.5C 589.387,383.935 588.721,382.935 590.5,380.5C 587.605,369.665 589.438,359.331 596,349.5C 596.333,343.833 596.667,338.167 597,332.5C 601.143,328.474 605.976,326.14 611.5,325.5 Z"/></g>
<g><path style="opacity:1" fill="#7d5a4c" d="M 659.5,317.5 C 648.847,317.253 638.514,318.753 628.5,322C 627.315,323.353 625.981,324.52 624.5,325.5C 622.232,324.456 619.899,324.289 617.5,325C 615.038,327.536 612.038,329.036 608.5,329.5C 607.614,330.325 607.281,331.325 607.5,332.5C 604.192,331.974 602.026,333.307 601,336.5C 602.216,346.015 599.716,354.348 593.5,361.5C 594.673,357.467 596.173,353.467 598,349.5C 598.738,345.29 598.572,341.124 597.5,337C 601.653,332.439 606.32,328.606 611.5,325.5C 612.492,325.672 613.158,325.338 613.5,324.5C 625.514,319.706 638.014,317.039 651,316.5C 654.021,316.502 656.854,316.836 659.5,317.5 Z"/></g>
<g><path style="opacity:1" fill="#78584c" d="M 660.5,317.5 C 662.5,317.5 664.5,317.5 666.5,317.5C 666.25,322.58 666.75,327.58 668,332.5C 670.512,338.188 673.012,343.855 675.5,349.5C 667.918,341.1 664.251,331.1 664.5,319.5C 662.62,319.771 661.287,319.104 660.5,317.5 Z"/></g>
<g><path style="opacity:1" fill="#2b1d0d" d="M 146.5,303.5 C 146.547,323.508 146.214,343.508 145.5,363.5C 144.504,378.658 144.17,393.991 144.5,409.5C 143.95,382.656 143.617,355.656 143.5,328.5C 144.137,321.177 144.637,313.843 145,306.5C 145.232,305.263 145.732,304.263 146.5,303.5 Z"/></g>
<g><path style="opacity:1" fill="#2f1e0d" d="M 453.5,367.5 C 451.951,356.212 449.951,344.879 447.5,333.5C 448.117,333.389 448.617,333.056 449,332.5C 452.312,343.887 453.812,355.554 453.5,367.5 Z"/></g>
<g><path style="opacity:1" fill="#deb16f" d="M 444.5,326.5 C 445.677,328.679 446.677,331.013 447.5,333.5C 449.951,344.879 451.951,356.212 453.5,367.5C 454.046,377.176 454.713,386.842 455.5,396.5C 454.883,396.389 454.383,396.056 454,395.5C 451.244,372.296 448.078,349.296 444.5,326.5 Z"/></g>
<g><path style="opacity:1" fill="#edb76c" d="M 376.5,383.5 C 377.384,379.51 376.051,376.677 372.5,375C 368.5,374.333 364.5,374.333 360.5,375C 359.944,375.383 359.611,375.883 359.5,376.5C 357.214,376.595 355.214,377.262 353.5,378.5C 342.965,380.01 333.299,383.676 324.5,389.5C 324.561,387.408 325.561,385.908 327.5,385C 327.167,384.667 326.833,384.333 326.5,384C 330.538,383.101 334.205,381.434 337.5,379C 342.151,378.101 346.818,377.268 351.5,376.5C 353.92,374.304 356.754,372.97 360,372.5C 363.273,373.66 366.606,373.66 370,372.5C 373.219,373.526 376.052,375.192 378.5,377.5C 377.95,379.657 377.283,381.657 376.5,383.5 Z"/></g>
<g><path style="opacity:1" fill="#261e1b" d="M 672.5,368.5 C 675.157,368.162 677.49,368.829 679.5,370.5C 682.271,375.463 683.271,380.63 682.5,386C 680.045,387.631 677.545,387.797 675,386.5C 671.327,381.811 669.493,376.478 669.5,370.5C 670.5,369.833 671.5,369.167 672.5,368.5 Z"/></g>
<g><path style="opacity:1" fill="#2f1d0e" d="M 353.5,378.5 C 346.339,381.612 339.005,384.446 331.5,387C 326.167,392.333 320.833,397.667 315.5,403C 310.407,406.452 307.241,411.286 306,417.5C 305.329,418.252 304.496,418.586 303.5,418.5C 307.83,406.846 314.83,397.18 324.5,389.5C 333.299,383.676 342.965,380.01 353.5,378.5 Z"/></g>
<g><path style="opacity:1" fill="#38210e" d="M 372.5,385.5 C 372.708,383.08 372.374,380.747 371.5,378.5C 365.528,377.694 359.528,377.694 353.5,378.5C 355.214,377.262 357.214,376.595 359.5,376.5C 363.85,375.311 368.183,375.311 372.5,376.5C 373.896,377.852 374.563,379.519 374.5,381.5C 374.66,383.355 373.993,384.688 372.5,385.5 Z"/></g>
<g><path style="opacity:1" fill="#281d1a" d="M 610.5,376.5 C 618.153,376.982 622.486,381.149 623.5,389C 622.472,393.206 619.805,394.539 615.5,393C 610.673,391.031 608.34,387.364 608.5,382C 608.395,379.822 609.061,377.988 610.5,376.5 Z"/></g>
<g><path style="opacity:1" fill="#d8ae72" d="M 376.5,383.5 C 375.023,385.807 373.023,387.64 370.5,389C 364.253,390.455 357.92,391.288 351.5,391.5C 358.464,389.343 365.464,387.343 372.5,385.5C 373.993,384.688 374.66,383.355 374.5,381.5C 374.563,379.519 373.896,377.852 372.5,376.5C 368.183,375.311 363.85,375.311 359.5,376.5C 359.611,375.883 359.944,375.383 360.5,375C 364.5,374.333 368.5,374.333 372.5,375C 376.051,376.677 377.384,379.51 376.5,383.5 Z"/></g>
<g><path style="opacity:1" fill="#805b4b" d="M 672.5,368.5 C 675.796,366.973 678.962,367.307 682,369.5C 684.927,374.468 685.927,379.802 685,385.5C 681.685,389.53 677.518,390.53 672.5,388.5C 669.846,384.36 668.179,379.86 667.5,375C 667.569,373.014 668.235,371.514 669.5,370.5C 669.493,376.478 671.327,381.811 675,386.5C 677.545,387.797 680.045,387.631 682.5,386C 683.271,380.63 682.271,375.463 679.5,370.5C 677.49,368.829 675.157,368.162 672.5,368.5 Z"/></g>
<g><path style="opacity:1" fill="#2f2012" d="M 342.5,393.5 C 339.991,394.921 337.657,396.588 335.5,398.5C 329.919,401.413 325.253,405.413 321.5,410.5C 321.373,408.085 321.207,405.751 321,403.5C 323.173,406.277 323.673,406.11 322.5,403C 327.79,400.033 333.124,397.033 338.5,394C 339.793,393.51 341.127,393.343 342.5,393.5 Z"/></g>
<g><path style="opacity:1" fill="#301d0d" d="M 453.5,367.5 C 457.74,395.718 460.74,424.218 462.5,453C 462.636,456.073 461.97,458.906 460.5,461.5C 459.833,461.5 459.167,461.5 458.5,461.5C 460.08,458.468 460.747,455.135 460.5,451.5C 458.831,434.016 457.164,416.683 455.5,399.5C 455.5,398.5 455.5,397.5 455.5,396.5C 454.713,386.842 454.046,377.176 453.5,367.5 Z"/></g>
<g><path style="opacity:1" fill="#8a5a45" d="M 595.5,434.5 C 595.338,436.527 595.505,438.527 596,440.5C 600.79,450.969 606.457,460.969 613,470.5C 613.912,478.205 612.245,485.538 608,492.5C 607.506,494.134 607.34,495.801 607.5,497.5C 604.019,509.14 600.519,520.806 597,532.5C 595.165,540.836 593.332,549.169 591.5,557.5C 591.5,558.167 591.5,558.833 591.5,559.5C 591.167,559.5 590.833,559.5 590.5,559.5C 589.252,560.334 588.585,561.667 588.5,563.5C 582.02,604.77 581.02,646.103 585.5,687.5C 585.564,691.919 585.064,696.252 584,700.5C 582.853,701.458 581.853,701.125 581,699.5C 574.195,680.036 566.528,661.37 558,643.5C 557.57,638.101 556.07,633.101 553.5,628.5C 552.5,628.5 551.5,628.5 550.5,628.5C 550.923,626.219 550.256,624.552 548.5,623.5C 545.08,617.096 541.747,610.596 538.5,604C 533.202,601.259 529.202,602.426 526.5,607.5C 524.741,610.892 523.741,614.725 523.5,619C 529.976,646.203 531.642,673.703 528.5,701.5C 526.55,703.222 525.217,705.388 524.5,708C 523.207,708.49 521.873,708.657 520.5,708.5C 517.313,694.38 514.813,680.047 513,665.5C 509.347,656.067 506.514,646.4 504.5,636.5C 503.522,636.023 502.689,635.357 502,634.5C 501.34,630.252 499.173,627.252 495.5,625.5C 495.5,625.167 495.5,624.833 495.5,624.5C 495.762,623.022 495.429,621.689 494.5,620.5C 491.104,617.869 487.438,615.702 483.5,614C 392.844,609.641 302.177,609.641 211.5,614C 206.308,614.06 203.308,616.56 202.5,621.5C 204.213,626.669 206.38,631.669 209,636.5C 209.334,638.847 209.167,641.181 208.5,643.5C 209.5,643.5 210.5,643.5 211.5,643.5C 212.756,649.763 214.922,655.763 218,661.5C 219.101,672.509 220.267,683.509 221.5,694.5C 221.167,695.167 220.833,695.833 220.5,696.5C 217.403,694.349 214.737,691.683 212.5,688.5C 211.675,687.614 210.675,687.281 209.5,687.5C 209.167,687.5 208.833,687.5 208.5,687.5C 195.798,668.618 182.464,650.118 168.5,632C 165.975,631.104 163.808,631.604 162,633.5C 160.019,647.066 157.519,660.399 154.5,673.5C 153.503,673.47 152.836,673.97 152.5,675C 150.848,682.952 147.848,690.285 143.5,697C 142.5,697.667 141.5,697.667 140.5,697C 138.69,693.33 136.19,690.163 133,687.5C 127.432,669.323 123.765,650.657 122,631.5C 120.147,626.962 118.813,622.296 118,617.5C 114.769,595.606 113.769,573.606 115,551.5C 116.918,544.874 118.918,538.207 121,531.5C 123.872,527.817 126.038,523.817 127.5,519.5C 134.39,511.277 143.056,505.943 153.5,503.5C 171.319,500.177 189.319,498.51 207.5,498.5C 207.5,499.5 207.5,500.5 207.5,501.5C 210.259,500.115 213.259,499.448 216.5,499.5C 219.966,500.612 223.133,500.278 226,498.5C 226.772,498.645 227.439,498.978 228,499.5C 238.934,498.711 249.934,498.044 261,497.5C 293.085,498.337 325.585,498.67 358.5,498.5C 375.671,495.521 393.004,493.688 410.5,493C 423.508,490.729 436.508,488.729 449.5,487C 456.753,485.3 463.92,483.133 471,480.5C 471.333,480.833 471.667,481.167 472,481.5C 473.167,480.333 474.333,479.167 475.5,478C 489.372,472.628 502.706,466.294 515.5,459C 520.997,454.173 526.331,449.173 531.5,444C 546.512,440.264 558.678,432.431 568,420.5C 568.483,419.552 568.649,418.552 568.5,417.5C 571.417,414.735 574.25,411.735 577,408.5C 577.662,406.187 578.162,403.854 578.5,401.5C 579.833,401.5 581.167,401.5 582.5,401.5C 582.335,404.518 582.502,407.518 583,410.5C 583.333,410.167 583.667,409.833 584,409.5C 585.654,416.952 587.487,424.285 589.5,431.5C 592.077,431.455 594.077,432.455 595.5,434.5 Z"/></g>
<g><path style="opacity:1" fill="#2d1f1a" d="M 696.5,463.5 C 699.495,453.025 701.662,442.359 703,431.5C 703.667,415.5 703.667,399.5 703,383.5C 692.832,372.847 683.665,361.514 675.5,349.5C 673.012,343.855 670.512,338.188 668,332.5C 666.75,327.58 666.25,322.58 666.5,317.5C 664.5,317.5 662.5,317.5 660.5,317.5C 660.167,317.5 659.833,317.5 659.5,317.5C 656.854,316.836 654.021,316.502 651,316.5C 638.014,317.039 625.514,319.706 613.5,324.5C 616.017,322.265 619.017,320.765 622.5,320C 622.381,318.719 622.881,317.552 624,316.5C 637.801,315.233 651.801,315.233 666,316.5C 666.945,316.905 667.612,317.572 668,318.5C 669.589,334.349 675.589,348.349 686,360.5C 687.667,361.833 689.333,363.167 691,364.5C 693.364,368.187 695.698,371.854 698,375.5C 699.584,376.861 701.418,377.528 703.5,377.5C 704.502,381.391 705.335,385.391 706,389.5C 706.193,398.881 706.693,408.214 707.5,417.5C 704.993,431.524 702.16,445.524 699,459.5C 698.392,461.066 697.558,462.4 696.5,463.5 Z"/></g>
<g><path style="opacity:1" fill="#7e5b4c" d="M 595.5,434.5 C 594.077,432.455 592.077,431.455 589.5,431.5C 587.487,424.285 585.654,416.952 584,409.5C 583.667,409.833 583.333,410.167 583,410.5C 582.502,407.518 582.335,404.518 582.5,401.5C 581.167,401.5 579.833,401.5 578.5,401.5C 578.162,403.854 577.662,406.187 577,408.5C 574.25,411.735 571.417,414.735 568.5,417.5C 572.896,410.384 577.063,403.051 581,395.5C 585.284,408.73 590.118,421.73 595.5,434.5 Z"/></g>
<g><path style="opacity:1" fill="#36240f" d="M 145.5,363.5 C 145.17,381.008 145.503,398.341 146.5,415.5C 146.345,425.041 147.012,434.374 148.5,443.5C 149.456,454.85 150.623,466.183 152,477.5C 152.611,481.07 154.444,483.737 157.5,485.5C 159.056,487.988 161.389,488.988 164.5,488.5C 171.451,487.286 178.451,486.619 185.5,486.5C 182.833,487.167 180.167,487.833 177.5,488.5C 171.555,489.698 165.555,490.198 159.5,490C 155.938,487.902 153.105,485.069 151,481.5C 147.269,457.66 145.102,433.66 144.5,409.5C 144.17,393.991 144.504,378.658 145.5,363.5 Z"/></g>
<g><path style="opacity:1" fill="#281d19" d="M 607.5,455.5 C 603.247,448.663 599.247,441.663 595.5,434.5C 590.118,421.73 585.284,408.73 581,395.5C 577.063,403.051 572.896,410.384 568.5,417.5C 564.134,422.866 559.134,427.533 553.5,431.5C 553.373,429.085 553.207,426.751 553,424.5C 555.027,424.986 557.193,424.986 559.5,424.5C 559.548,421.365 561.215,419.698 564.5,419.5C 565.822,415.523 567.655,411.856 570,408.5C 574.93,404.32 578.097,398.987 579.5,392.5C 580.736,391.754 582.07,391.421 583.5,391.5C 584.08,395.142 584.58,398.809 585,402.5C 588.318,406.87 590.318,411.87 591,417.5C 591.388,416.572 592.055,415.905 593,415.5C 595.172,416.608 595.672,418.108 594.5,420C 598.651,431.976 602.984,443.809 607.5,455.5 Z"/></g>
<g><path style="opacity:1" fill="#7e5c4d" d="M 593.5,361.5 C 593.334,367.176 593.501,372.843 594,378.5C 597.986,404.141 606.986,427.807 621,449.5C 621.49,450.793 621.657,452.127 621.5,453.5C 615.647,444.46 610.314,435.127 605.5,425.5C 597.049,407.318 592.382,388.151 591.5,368C 591.336,365.456 592.003,363.29 593.5,361.5 Z"/></g>
<g><path style="opacity:1" fill="#e3b67a" d="M 324.5,389.5 C 314.83,397.18 307.83,406.846 303.5,418.5C 299.952,426.354 297.785,434.687 297,443.5C 296.209,456.556 296.709,469.556 298.5,482.5C 294.833,482.5 291.167,482.5 287.5,482.5C 290.228,481.795 293.061,481.128 296,480.5C 295.456,467.527 295.456,454.527 296,441.5C 297.311,430.232 300.644,419.566 306,409.5C 306.72,407.888 306.554,406.388 305.5,405C 306.793,404.51 308.127,404.343 309.5,404.5C 309.579,403.07 309.246,401.736 308.5,400.5C 311.26,398.372 314.094,396.372 317,394.5C 318.438,393.1 319.271,391.433 319.5,389.5C 321.167,389.5 322.833,389.5 324.5,389.5 Z"/></g>
<g><path style="opacity:1" fill="#402c17" d="M 217.5,399.5 C 219.158,409.958 220.158,420.625 220.5,431.5C 221.699,448.81 222.365,466.143 222.5,483.5C 233.5,483.5 244.5,483.5 255.5,483.5C 255.5,483.833 255.5,484.167 255.5,484.5C 243.919,484.821 232.419,484.488 221,483.5C 219.133,455.528 217.966,427.528 217.5,399.5 Z"/></g>
<g><path style="opacity:1" fill="#e7b46f" d="M 455.5,399.5 C 457.164,416.683 458.831,434.016 460.5,451.5C 460.747,455.135 460.08,458.468 458.5,461.5C 448.987,467.076 438.654,470.076 427.5,470.5C 433.972,468.405 440.638,466.572 447.5,465C 448.973,464.29 449.64,463.124 449.5,461.5C 451.5,461.167 453.5,460.833 455.5,460.5C 455.134,458.095 454.467,455.762 453.5,453.5C 453.833,452.833 454.167,452.167 454.5,451.5C 455.452,453.045 455.785,454.712 455.5,456.5C 456.5,456.5 457.5,456.5 458.5,456.5C 456.962,437.535 455.962,418.535 455.5,399.5 Z"/></g>
<g><path style="opacity:1" fill="#e9b66f" d="M 335.5,398.5 C 333.054,403.284 329.387,406.617 324.5,408.5C 324.477,410.927 323.977,413.26 323,415.5C 319.833,420.164 317.5,425.164 316,430.5C 313.273,446.317 311.773,461.983 311.5,477.5C 313.06,477.519 314.56,477.852 316,478.5C 333.121,477.107 350.287,476.44 367.5,476.5C 356.812,477.235 346.145,478.235 335.5,479.5C 327.505,479.935 319.505,480.269 311.5,480.5C 309.533,472.903 308.866,464.903 309.5,456.5C 309.671,440.107 313.671,424.774 321.5,410.5C 325.253,405.413 329.919,401.413 335.5,398.5 Z"/></g>
<g><path style="opacity:1" fill="#e9b66e" d="M 427.5,470.5 C 412.9,472.939 398.233,474.939 383.5,476.5C 378.833,476.5 374.167,476.5 369.5,476.5C 370.398,475.842 371.398,475.176 372.5,474.5C 389.953,471.717 408.286,470.384 427.5,470.5 Z"/></g>
<g><path style="opacity:1" fill="#a8895e" d="M 309.5,456.5 C 308.866,464.903 309.533,472.903 311.5,480.5C 311.5,480.833 311.5,481.167 311.5,481.5C 310.5,481.5 309.5,481.5 308.5,481.5C 308.174,472.983 308.507,464.65 309.5,456.5 Z"/></g>
<g><path style="opacity:1" fill="#2f2114" d="M 458.5,461.5 C 458.141,463.371 457.141,464.871 455.5,466C 448.999,468.087 442.999,470.92 437.5,474.5C 437.53,473.503 437.03,472.836 436,472.5C 429.31,473.883 422.643,475.216 416,476.5C 405.25,476.127 394.417,476.127 383.5,476.5C 398.233,474.939 412.9,472.939 427.5,470.5C 438.654,470.076 448.987,467.076 458.5,461.5 Z"/></g>
<g><path style="opacity:1" fill="#deb378" d="M 148.5,443.5 C 150.583,453.941 152.083,464.607 153,475.5C 154.243,478.983 155.743,482.316 157.5,485.5C 154.444,483.737 152.611,481.07 152,477.5C 150.623,466.183 149.456,454.85 148.5,443.5 Z"/></g>
<g><path style="opacity:1" fill="#331f09" d="M 367.5,476.5 C 368.167,476.5 368.833,476.5 369.5,476.5C 374.167,476.5 378.833,476.5 383.5,476.5C 367.722,478.558 351.722,479.558 335.5,479.5C 346.145,478.235 356.812,477.235 367.5,476.5 Z"/></g>
<g><path style="opacity:1" fill="#e6b36c" d="M 223.5,455.5 C 223.154,447.281 222.154,439.281 220.5,431.5C 220.158,420.625 219.158,409.958 217.5,399.5C 217.678,395.148 215.512,393.148 211,393.5C 207.79,393.568 206.123,395.234 206,398.5C 205.172,415.005 205.338,431.339 206.5,447.5C 206.501,455.517 206.834,463.517 207.5,471.5C 207.586,475.857 207.92,480.19 208.5,484.5C 206.901,484.232 205.568,484.566 204.5,485.5C 198.143,485.476 191.81,485.81 185.5,486.5C 178.451,486.619 171.451,487.286 164.5,488.5C 161.389,488.988 159.056,487.988 157.5,485.5C 163.23,486.168 168.563,485.168 173.5,482.5C 176.036,484.356 178.702,484.689 181.5,483.5C 180.359,482.575 180.359,481.741 181.5,481C 184.817,480.502 188.15,480.335 191.5,480.5C 191.5,481.5 191.5,482.5 191.5,483.5C 196.179,483.666 200.845,483.499 205.5,483C 205.431,477.778 204.764,472.444 203.5,467C 203.953,456.089 203.953,445.089 203.5,434C 203.405,419.904 204.072,405.904 205.5,392C 208.5,391.333 211.5,391.333 214.5,392C 217.182,392.163 218.849,393.496 219.5,396C 220.099,404.194 220.933,412.36 222,420.5C 222.333,419.833 222.667,419.167 223,418.5C 223.5,430.829 223.667,443.162 223.5,455.5 Z"/></g>
<g><path style="opacity:1" fill="#2c1a06" d="M 217.5,399.5 C 216.249,395.861 213.583,394.194 209.5,394.5C 208.351,399.418 207.517,404.418 207,409.5C 206.5,422.162 206.333,434.829 206.5,447.5C 205.338,431.339 205.172,415.005 206,398.5C 206.123,395.234 207.79,393.568 211,393.5C 215.512,393.148 217.678,395.148 217.5,399.5 Z"/></g>
<g><path style="opacity:1" fill="#3c2511" d="M 335.5,479.5 C 335.082,480.222 334.416,480.722 333.5,481C 329.646,481.354 325.812,481.854 322,482.5C 318.542,481.714 315.042,481.38 311.5,481.5C 311.5,481.167 311.5,480.833 311.5,480.5C 319.505,480.269 327.505,479.935 335.5,479.5 Z"/></g>
<g><path style="opacity:1" fill="#251e1b" d="M 549.5,434.5 C 544.057,437.873 538.057,440.039 531.5,441C 517.2,455.49 500.534,466.49 481.5,474C 455.015,483.73 427.682,489.564 399.5,491.5C 409.864,488.833 420.531,487.167 431.5,486.5C 431.5,485.5 431.5,484.5 431.5,483.5C 434.831,483.422 437.498,482.755 439.5,481.5C 439.729,479.567 440.562,477.9 442,476.5C 443.796,477.767 445.629,477.767 447.5,476.5C 448.478,476.977 449.311,477.643 450,478.5C 451.851,476.219 453.518,476.219 455,478.5C 456.356,477.62 457.856,477.286 459.5,477.5C 459.678,474.784 460.178,472.117 461,469.5C 462.132,471.522 463.799,471.855 466,470.5C 468.527,470.33 469.027,469.33 467.5,467.5C 473.066,465.565 474.566,467.232 472,472.5C 471.667,471.5 471.333,470.5 471,469.5C 470.682,471.061 469.849,472.228 468.5,473C 473.257,473.81 477.924,473.476 482.5,472C 489.641,469.6 495.975,465.934 501.5,461C 506.665,459.431 510.665,456.431 513.5,452C 516.712,450.982 518.545,448.816 519,445.5C 519.333,445.833 519.667,446.167 520,446.5C 520.49,445.207 520.657,443.873 520.5,442.5C 527.107,442.579 529.44,439.579 527.5,433.5C 530.483,435.241 533.649,436.574 537,437.5C 541.202,436.598 545.368,435.598 549.5,434.5 Z"/></g>
<g><path style="opacity:1" fill="#2c1d18" d="M 623.5,458.5 C 628.923,466.345 634.589,474.011 640.5,481.5C 644.343,489.348 650.343,494.681 658.5,497.5C 658.5,495.5 658.5,493.5 658.5,491.5C 660.344,493.279 661.01,495.612 660.5,498.5C 656.929,499.087 653.263,499.087 649.5,498.5C 648.296,496.266 647.13,493.933 646,491.5C 644.89,489.963 643.39,489.297 641.5,489.5C 641.628,487.345 641.128,485.345 640,483.5C 638.045,482.547 636.378,481.213 635,479.5C 631.159,472.483 627.326,465.483 623.5,458.5 Z"/></g>
<g><path style="opacity:1" fill="#e5b87c" d="M 220.5,431.5 C 222.154,439.281 223.154,447.281 223.5,455.5C 223.5,464.5 223.5,473.5 223.5,482.5C 244.833,482.5 266.167,482.5 287.5,482.5C 277.013,483.494 266.346,483.828 255.5,483.5C 244.5,483.5 233.5,483.5 222.5,483.5C 222.365,466.143 221.699,448.81 220.5,431.5 Z"/></g>
<g><path style="opacity:1" fill="#35220d" d="M 303.5,418.5 C 302.015,426.452 300.515,434.452 299,442.5C 298.29,455.939 298.624,469.273 300,482.5C 299.25,483.126 298.416,483.626 297.5,484C 283.504,484.5 269.504,484.667 255.5,484.5C 255.5,484.167 255.5,483.833 255.5,483.5C 266.346,483.828 277.013,483.494 287.5,482.5C 291.167,482.5 294.833,482.5 298.5,482.5C 296.709,469.556 296.209,456.556 297,443.5C 297.785,434.687 299.952,426.354 303.5,418.5 Z"/></g>
<g><path style="opacity:1" fill="#9a7c53" d="M 207.5,471.5 C 208.972,475.919 209.638,480.586 209.5,485.5C 207.833,485.5 206.167,485.5 204.5,485.5C 205.568,484.566 206.901,484.232 208.5,484.5C 207.92,480.19 207.586,475.857 207.5,471.5 Z"/></g>
<g><path style="opacity:1" fill="#7c5d4f" d="M 646.5,470.5 C 645.89,471.391 645.557,472.391 645.5,473.5C 643.59,481.177 646.256,487.01 653.5,491C 655.134,491.494 656.801,491.66 658.5,491.5C 658.5,493.5 658.5,495.5 658.5,497.5C 650.343,494.681 644.343,489.348 640.5,481.5C 641.5,481.5 642.5,481.5 643.5,481.5C 643.335,478.15 643.502,474.817 644,471.5C 644.671,470.748 645.504,470.414 646.5,470.5 Z"/></g>
<g><path style="opacity:1" fill="#2a1b0f" d="M 206.5,447.5 C 207.5,447.5 208.5,447.5 209.5,447.5C 209.564,460.518 209.731,473.518 210,486.5C 199.265,487.887 188.432,488.553 177.5,488.5C 180.167,487.833 182.833,487.167 185.5,486.5C 191.81,485.81 198.143,485.476 204.5,485.5C 206.167,485.5 207.833,485.5 209.5,485.5C 209.638,480.586 208.972,475.919 207.5,471.5C 206.834,463.517 206.501,455.517 206.5,447.5 Z"/></g>
<g><path style="opacity:1" fill="#7c5c4c" d="M 595.5,434.5 C 599.247,441.663 603.247,448.663 607.5,455.5C 610.434,461.868 613.768,468.034 617.5,474C 614.528,482.096 611.195,489.93 607.5,497.5C 607.34,495.801 607.506,494.134 608,492.5C 612.245,485.538 613.912,478.205 613,470.5C 606.457,460.969 600.79,450.969 596,440.5C 595.505,438.527 595.338,436.527 595.5,434.5 Z"/></g>
<g><path style="opacity:1" fill="#2c1c19" d="M 671.5,471.5 C 673.448,474.621 675.615,477.621 678,480.5C 679.042,488.3 675.542,492.3 667.5,492.5C 667.5,491.5 667.5,490.5 667.5,489.5C 670.664,489.442 673.664,488.776 676.5,487.5C 676.286,485.856 676.62,484.356 677.5,483C 672.833,478.333 668.167,473.667 663.5,469C 656.708,467.928 650.708,469.428 645.5,473.5C 645.557,472.391 645.89,471.391 646.5,470.5C 655.014,465.237 663.348,465.57 671.5,471.5 Z"/></g>
<g><path style="opacity:1" fill="#7d5a4c" d="M 671.5,471.5 C 673.39,471.297 674.89,471.963 676,473.5C 678.24,477.612 680.407,481.779 682.5,486C 683.483,486.591 684.15,486.257 684.5,485C 685.233,483.234 685.567,481.401 685.5,479.5C 686.833,479.5 688.167,479.5 689.5,479.5C 686.536,491.46 678.87,497.46 666.5,497.5C 666.216,495.585 666.549,493.919 667.5,492.5C 675.542,492.3 679.042,488.3 678,480.5C 675.615,477.621 673.448,474.621 671.5,471.5 Z"/></g>
<g><path style="opacity:1" fill="#2d1e19" d="M 382.5,491.5 C 388.167,491.5 393.833,491.5 399.5,491.5C 383.723,493.644 367.723,494.81 351.5,495C 309.835,495.5 268.168,495.667 226.5,495.5C 233.641,494.003 240.974,493.003 248.5,492.5C 278.903,493.117 309.236,493.45 339.5,493.5C 354.018,493.406 368.351,492.739 382.5,491.5 Z"/></g>
<g><path style="opacity:1" fill="#7f5b4e" d="M 104.5,487.5 C 104.897,486.475 105.563,486.308 106.5,487C 112.156,492.149 118.49,496.316 125.5,499.5C 126.521,500.002 126.688,500.668 126,501.5C 123.815,502.928 121.815,504.595 120,506.5C 114.336,500.464 109.169,494.13 104.5,487.5 Z"/></g>
<g><path style="opacity:1" fill="#825c4b" d="M 568.5,417.5 C 568.649,418.552 568.483,419.552 568,420.5C 558.678,432.431 546.512,440.264 531.5,444C 526.331,449.173 520.997,454.173 515.5,459C 502.706,466.294 489.372,472.628 475.5,478C 474.333,479.167 473.167,480.333 472,481.5C 471.667,481.167 471.333,480.833 471,480.5C 463.92,483.133 456.753,485.3 449.5,487C 436.508,488.729 423.508,490.729 410.5,493C 393.004,493.688 375.671,495.521 358.5,498.5C 325.585,498.67 293.085,498.337 261,497.5C 249.934,498.044 238.934,498.711 228,499.5C 227.439,498.978 226.772,498.645 226,498.5C 223.133,500.278 219.966,500.612 216.5,499.5C 213.259,499.448 210.259,500.115 207.5,501.5C 207.5,500.5 207.5,499.5 207.5,498.5C 189.319,498.51 171.319,500.177 153.5,503.5C 156.282,502.067 159.282,500.9 162.5,500C 183.794,497.853 205.127,496.353 226.5,495.5C 268.168,495.667 309.835,495.5 351.5,495C 367.723,494.81 383.723,493.644 399.5,491.5C 427.682,489.564 455.015,483.73 481.5,474C 500.534,466.49 517.2,455.49 531.5,441C 538.057,440.039 544.057,437.873 549.5,434.5C 551.23,433.974 552.564,432.974 553.5,431.5C 559.134,427.533 564.134,422.866 568.5,417.5 Z"/></g>
<g><path style="opacity:1" fill="#291e19" d="M 607.5,455.5 C 608.496,455.414 609.329,455.748 610,456.5C 611.139,459.583 612.472,462.583 614,465.5C 618.215,468.472 619.548,472.472 618,477.5C 616.162,483.383 614.329,489.216 612.5,495C 612.759,496.261 613.426,497.261 614.5,498C 612.095,502.333 609.261,506.833 606,511.5C 605.667,513.833 605.333,516.167 605,518.5C 602.333,525.832 599.667,533.165 597,540.5C 596.848,546.894 595.015,552.561 591.5,557.5C 593.332,549.169 595.165,540.836 597,532.5C 600.519,520.806 604.019,509.14 607.5,497.5C 611.195,489.93 614.528,482.096 617.5,474C 613.768,468.034 610.434,461.868 607.5,455.5 Z"/></g>
<g><path style="opacity:1" fill="#291e1a" d="M 590.5,559.5 C 590.833,559.5 591.167,559.5 591.5,559.5C 588.556,582.604 586.556,605.771 585.5,629C 585.904,647.11 587.571,665.11 590.5,683C 590.126,689.802 589.793,696.636 589.5,703.5C 588.5,703.5 587.5,703.5 586.5,703.5C 586.657,704.873 586.49,706.207 586,707.5C 584.597,705.802 582.764,705.302 580.5,706C 577.973,703.426 576.806,700.26 577,696.5C 575.601,695.773 574.101,695.273 572.5,695C 574.645,694.257 574.811,693.424 573,692.5C 571.351,693.898 570.018,693.564 569,691.5C 569.112,689.822 569.612,688.155 570.5,686.5C 569.936,684.181 569.436,681.847 569,679.5C 566.15,675.8 563.817,671.8 562,667.5C 561.895,663.64 561.062,659.974 559.5,656.5C 555.436,652.878 552.769,648.378 551.5,643C 551.833,642.667 552.167,642.333 552.5,642C 548.533,635.287 545.867,628.121 544.5,620.5C 541.477,620.895 540.477,619.895 541.5,617.5C 539.726,614.285 538.226,610.952 537,607.5C 534.521,604.907 532.021,604.907 529.5,607.5C 528.833,612.985 528.167,618.319 527.5,623.5C 526.658,618.213 526.324,612.88 526.5,607.5C 529.202,602.426 533.202,601.259 538.5,604C 541.747,610.596 545.08,617.096 548.5,623.5C 559.376,650.081 570.376,676.581 581.5,703C 582.635,703.749 583.635,703.583 584.5,702.5C 586.858,697.779 587.858,692.779 587.5,687.5C 582.785,644.679 583.785,602.013 590.5,559.5 Z"/></g>
<g><path style="opacity:1" fill="#301f18" d="M 431.5,613.5 C 358.136,612.813 284.802,613.979 211.5,617C 208.568,617.295 206.568,618.795 205.5,621.5C 206.894,623.646 207.56,625.979 207.5,628.5C 204.861,625.701 204.028,622.368 205,618.5C 205.903,617.299 207.069,616.465 208.5,616C 262.634,613.426 316.801,611.926 371,611.5C 391.357,611.296 411.524,611.962 431.5,613.5 Z"/></g>
<g><path style="opacity:1" fill="#7c5a4c" d="M 495.5,624.5 C 491.592,621.106 487.258,618.273 482.5,616C 465.532,614.545 448.532,613.712 431.5,613.5C 411.524,611.962 391.357,611.296 371,611.5C 316.801,611.926 262.634,613.426 208.5,616C 207.069,616.465 205.903,617.299 205,618.5C 204.028,622.368 204.861,625.701 207.5,628.5C 211.817,638.281 215.651,648.281 219,658.5C 222.524,672.307 223.858,686.307 223,700.5C 222.692,701.308 222.192,701.975 221.5,702.5C 216.781,698.056 212.781,693.056 209.5,687.5C 210.675,687.281 211.675,687.614 212.5,688.5C 214.737,691.683 217.403,694.349 220.5,696.5C 220.833,695.833 221.167,695.167 221.5,694.5C 220.267,683.509 219.101,672.509 218,661.5C 214.922,655.763 212.756,649.763 211.5,643.5C 210.5,643.5 209.5,643.5 208.5,643.5C 209.167,641.181 209.334,638.847 209,636.5C 206.38,631.669 204.213,626.669 202.5,621.5C 203.308,616.56 206.308,614.06 211.5,614C 302.177,609.641 392.844,609.641 483.5,614C 487.438,615.702 491.104,617.869 494.5,620.5C 495.429,621.689 495.762,623.022 495.5,624.5 Z"/></g>
<g><path style="opacity:1" fill="#805c4e" d="M 590.5,559.5 C 583.785,602.013 582.785,644.679 587.5,687.5C 587.858,692.779 586.858,697.779 584.5,702.5C 583.635,703.583 582.635,703.749 581.5,703C 570.376,676.581 559.376,650.081 548.5,623.5C 550.256,624.552 550.923,626.219 550.5,628.5C 551.5,628.5 552.5,628.5 553.5,628.5C 556.07,633.101 557.57,638.101 558,643.5C 566.528,661.37 574.195,680.036 581,699.5C 581.853,701.125 582.853,701.458 584,700.5C 585.064,696.252 585.564,691.919 585.5,687.5C 581.02,646.103 582.02,604.77 588.5,563.5C 588.585,561.667 589.252,560.334 590.5,559.5 Z"/></g>
<g><path style="opacity:1" fill="#301f17" d="M 112.5,559.5 C 112.334,568.839 112.5,578.173 113,587.5C 115.899,615.76 120.399,643.76 126.5,671.5C 124.805,669.268 123.638,666.601 123,663.5C 122.204,656.391 120.871,649.391 119,642.5C 113.824,614.825 111.658,587.158 112.5,559.5 Z"/></g>
<g><path style="opacity:1" fill="#281e1a" d="M 208.5,687.5 C 206.825,685.998 204.992,684.665 203,683.5C 202.751,680.823 201.751,678.49 200,676.5C 196.084,670.962 191.584,665.962 186.5,661.5C 184.398,658.295 182.565,654.962 181,651.5C 179.676,650.12 178.343,649.786 177,650.5C 176.391,647.39 174.557,645.39 171.5,644.5C 170.976,642.547 169.976,640.88 168.5,639.5C 169.59,638.391 169.59,637.391 168.5,636.5C 167.575,635.359 166.741,635.359 166,636.5C 165.564,642.406 164.064,648.239 161.5,654C 165.449,654.807 165.449,655.307 161.5,655.5C 161.592,658.359 161.925,660.859 162.5,663C 158.596,668.453 156.429,674.62 156,681.5C 154.921,685.225 153.255,688.558 151,691.5C 150.661,694.036 150.161,696.536 149.5,699C 149.735,699.873 150.069,700.707 150.5,701.5C 148.925,702.446 147.258,702.446 145.5,701.5C 144.353,701.818 143.519,702.484 143,703.5C 139.893,702.205 136.726,701.205 133.5,700.5C 132.495,697.279 131.661,693.946 131,690.5C 127.922,686.406 126.756,681.739 127.5,676.5C 129.53,682.413 131.697,688.413 134,694.5C 137.795,702.033 142.129,702.367 147,695.5C 150.366,688.441 152.866,681.108 154.5,673.5C 157.519,660.399 160.019,647.066 162,633.5C 163.808,631.604 165.975,631.104 168.5,632C 182.464,650.118 195.798,668.618 208.5,687.5 Z"/></g>
<g><path style="opacity:1" fill="#825c4c" d="M 495.5,625.5 C 499.173,627.252 501.34,630.252 502,634.5C 502.689,635.357 503.522,636.023 504.5,636.5C 506.514,646.4 509.347,656.067 513,665.5C 514.813,680.047 517.313,694.38 520.5,708.5C 521.873,708.657 523.207,708.49 524.5,708C 525.217,705.388 526.55,703.222 528.5,701.5C 528.173,705.818 526.506,709.484 523.5,712.5C 519.474,711.069 517.308,708.069 517,703.5C 513.616,688.245 510.616,672.911 508,657.5C 505.286,646.179 501.119,635.512 495.5,625.5 Z"/></g>
<g><path style="opacity:1" fill="#7e5c4e" d="M 526.5,607.5 C 526.324,612.88 526.658,618.213 527.5,623.5C 527.232,625.099 527.566,626.432 528.5,627.5C 530.161,643.454 531.161,659.454 531.5,675.5C 531.333,682.167 531.167,688.833 531,695.5C 530.434,697.723 529.6,699.723 528.5,701.5C 531.642,673.703 529.976,646.203 523.5,619C 523.741,614.725 524.741,610.892 526.5,607.5 Z"/></g>
<g><path style="opacity:1" fill="#2c1e16" d="M 533.5,694.5 C 532.225,698.906 530.891,703.406 529.5,708C 527.906,710.101 525.906,711.601 523.5,712.5C 526.506,709.484 528.173,705.818 528.5,701.5C 529.6,699.723 530.434,697.723 531,695.5C 531.167,688.833 531.333,682.167 531.5,675.5C 531.161,659.454 530.161,643.454 528.5,627.5C 530.739,635.993 532.239,645.326 533,655.5C 533.5,668.496 533.667,681.496 533.5,694.5 Z"/></g>
<g><path style="opacity:1" fill="#231e1d" d="M 431.5,613.5 C 448.532,613.712 465.532,614.545 482.5,616C 487.258,618.273 491.592,621.106 495.5,624.5C 495.5,624.833 495.5,625.167 495.5,625.5C 501.119,635.512 505.286,646.179 508,657.5C 510.616,672.911 513.616,688.245 517,703.5C 517.308,708.069 519.474,711.069 523.5,712.5C 525.906,711.601 527.906,710.101 529.5,708C 530.891,703.406 532.225,698.906 533.5,694.5C 534.333,696.752 534.333,698.919 533.5,701C 535.243,703.064 537.243,703.564 539.5,702.5C 539.183,698.261 539.183,693.927 539.5,689.5C 540.833,689.5 542.167,689.5 543.5,689.5C 543.336,686.813 543.503,684.146 544,681.5C 544.183,684.365 544.683,687.031 545.5,689.5C 544.334,703.847 539.001,716.347 529.5,727C 525.426,730.226 521.426,730.226 517.5,727C 507.602,715.698 501.602,702.531 499.5,687.5C 499.5,686.5 499.5,685.5 499.5,684.5C 500.822,684.67 501.989,684.337 503,683.5C 503.419,684.672 504.085,685.672 505,686.5C 505.729,682.623 505.562,678.789 504.5,675C 504.611,673.278 505.111,673.112 506,674.5C 506.779,667.609 505.612,661.109 502.5,655C 503.022,654.439 503.355,653.772 503.5,653C 501.974,648.627 501.308,644.127 501.5,639.5C 500.5,639.5 499.5,639.5 498.5,639.5C 498.66,637.801 498.494,636.134 498,634.5C 495.042,629.349 491.542,624.516 487.5,620C 484.947,619.239 482.447,618.406 480,617.5C 468.957,616.208 458.29,616.208 448,617.5C 445.276,616.224 442.276,615.558 439,615.5C 436.167,615.667 433.333,615.833 430.5,616C 429.975,616.692 429.308,617.192 428.5,617.5C 424.875,615.811 421.208,615.144 417.5,615.5C 416.808,616.025 416.308,616.692 416,617.5C 413.276,616.224 410.276,615.558 407,615.5C 403.019,615.357 399.519,616.357 396.5,618.5C 396.002,617.397 395.669,616.397 395.5,615.5C 393.714,617.922 392.048,617.922 390.5,615.5C 389.284,616.002 388.117,616.335 387,616.5C 385.562,615.282 383.895,614.615 382,614.5C 371.85,615.258 361.85,615.258 352,614.5C 350.333,615.167 348.667,615.833 347,616.5C 334.276,615.668 321.276,615.334 308,615.5C 306.667,616.167 305.333,616.833 304,617.5C 301.618,616.446 299.118,615.779 296.5,615.5C 296.649,616.552 296.483,617.552 296,618.5C 293.022,618.672 290.022,618.005 287,616.5C 286.506,618.134 286.34,619.801 286.5,621.5C 276.525,621.269 266.192,621.269 255.5,621.5C 255.5,620.5 255.5,619.5 255.5,618.5C 256.978,618.762 258.311,618.429 259.5,617.5C 257.041,616.357 254.707,616.69 252.5,618.5C 241.24,617.876 229.907,617.543 218.5,617.5C 216.775,618.015 215.108,618.682 213.5,619.5C 214.641,620.425 214.641,621.259 213.5,622C 215.167,622.333 216.833,622.667 218.5,623C 217.939,624.566 218.606,625.899 220.5,627C 219.663,628.011 219.33,629.178 219.5,630.5C 220.5,630.5 221.5,630.5 222.5,630.5C 222.5,630.833 222.5,631.167 222.5,631.5C 221.115,632.574 219.949,633.907 219,635.5C 218.664,633.926 217.831,632.592 216.5,631.5C 216.833,630.833 217.167,630.167 217.5,629.5C 214.672,622.328 212.338,622.161 210.5,629C 211.997,631.234 213.163,633.734 214,636.5C 214.75,637.126 215.584,637.626 216.5,638C 216.167,638.333 215.833,638.667 215.5,639C 221.142,657.394 224.808,676.228 226.5,695.5C 226.297,698.197 225.964,700.864 225.5,703.5C 221.177,703.453 217.177,702.453 213.5,700.5C 212.804,695.736 211.137,691.403 208.5,687.5C 208.833,687.5 209.167,687.5 209.5,687.5C 212.781,693.056 216.781,698.056 221.5,702.5C 222.192,701.975 222.692,701.308 223,700.5C 223.858,686.307 222.524,672.307 219,658.5C 215.651,648.281 211.817,638.281 207.5,628.5C 207.56,625.979 206.894,623.646 205.5,621.5C 206.568,618.795 208.568,617.295 211.5,617C 284.802,613.979 358.136,612.813 431.5,613.5 Z"/></g>
<g><path style="opacity:1" fill="#212020" d="M 499.5,687.5 C 497.537,672.33 493.37,657.663 487,643.5C 482.958,635.791 476.791,630.624 468.5,628C 386.159,624.72 303.826,624.72 221.5,628C 222.252,628.671 222.586,629.504 222.5,630.5C 221.5,630.5 220.5,630.5 219.5,630.5C 219.33,629.178 219.663,628.011 220.5,627C 218.606,625.899 217.939,624.566 218.5,623C 216.833,622.667 215.167,622.333 213.5,622C 214.641,621.259 214.641,620.425 213.5,619.5C 215.108,618.682 216.775,618.015 218.5,617.5C 229.907,617.543 241.24,617.876 252.5,618.5C 254.707,616.69 257.041,616.357 259.5,617.5C 258.311,618.429 256.978,618.762 255.5,618.5C 255.5,619.5 255.5,620.5 255.5,621.5C 266.192,621.269 276.525,621.269 286.5,621.5C 286.34,619.801 286.506,618.134 287,616.5C 290.022,618.005 293.022,618.672 296,618.5C 296.483,617.552 296.649,616.552 296.5,615.5C 299.118,615.779 301.618,616.446 304,617.5C 305.333,616.833 306.667,616.167 308,615.5C 321.276,615.334 334.276,615.668 347,616.5C 348.667,615.833 350.333,615.167 352,614.5C 361.85,615.258 371.85,615.258 382,614.5C 383.895,614.615 385.562,615.282 387,616.5C 388.117,616.335 389.284,616.002 390.5,615.5C 392.048,617.922 393.714,617.922 395.5,615.5C 395.669,616.397 396.002,617.397 396.5,618.5C 399.519,616.357 403.019,615.357 407,615.5C 410.276,615.558 413.276,616.224 416,617.5C 416.308,616.692 416.808,616.025 417.5,615.5C 421.208,615.144 424.875,615.811 428.5,617.5C 429.308,617.192 429.975,616.692 430.5,616C 433.333,615.833 436.167,615.667 439,615.5C 442.276,615.558 445.276,616.224 448,617.5C 458.29,616.208 468.957,616.208 480,617.5C 482.447,618.406 484.947,619.239 487.5,620C 491.542,624.516 495.042,629.349 498,634.5C 498.494,636.134 498.66,637.801 498.5,639.5C 499.5,639.5 500.5,639.5 501.5,639.5C 501.308,644.127 501.974,648.627 503.5,653C 503.355,653.772 503.022,654.439 502.5,655C 505.612,661.109 506.779,667.609 506,674.5C 505.111,673.112 504.611,673.278 504.5,675C 505.562,678.789 505.729,682.623 505,686.5C 504.085,685.672 503.419,684.672 503,683.5C 501.989,684.337 500.822,684.67 499.5,684.5C 499.5,685.5 499.5,686.5 499.5,687.5 Z"/></g>
<g><path style="opacity:1" fill="#7f5b4d" d="M 127.5,519.5 C 126.038,523.817 123.872,527.817 121,531.5C 118.918,538.207 116.918,544.874 115,551.5C 113.769,573.606 114.769,595.606 118,617.5C 118.813,622.296 120.147,626.962 122,631.5C 123.765,650.657 127.432,669.323 133,687.5C 136.19,690.163 138.69,693.33 140.5,697C 141.5,697.667 142.5,697.667 143.5,697C 147.848,690.285 150.848,682.952 152.5,675C 152.836,673.97 153.503,673.47 154.5,673.5C 152.866,681.108 150.366,688.441 147,695.5C 142.129,702.367 137.795,702.033 134,694.5C 131.697,688.413 129.53,682.413 127.5,676.5C 127.371,674.784 127.038,673.117 126.5,671.5C 120.399,643.76 115.899,615.76 113,587.5C 112.5,578.173 112.334,568.839 112.5,559.5C 112.425,555.103 112.925,550.77 114,546.5C 115.885,536.064 120.385,527.064 127.5,519.5 Z"/></g>
</svg>
